<svg width="1920" height="93" viewBox="0 0 1920 93" fill="none" xmlns="http://www.w3.org/2000/svg">
<g clip-path="url(#clip0_16_2)">
<path fill-rule="evenodd" clip-rule="evenodd" d="M60.9632 69.49C33.0687 83.7 0 63.4399 0 32.1299V-2770.39C0 -2796.34 14.554 -2820.09 37.6703 -2831.87L48.6703 -2837.48C68.3526 -2847.51 91.6475 -2847.51 111.33 -2837.48L128.67 -2828.64C148.352 -2818.61 171.647 -2818.61 191.33 -2828.64L208.67 -2837.48C228.352 -2847.51 251.647 -2847.51 271.33 -2837.48L288.67 -2828.64C308.353 -2818.61 331.648 -2818.61 351.33 -2828.64L368.67 -2837.48C388.353 -2847.51 411.647 -2847.51 431.33 -2837.48L448.67 -2828.64C468.353 -2818.61 491.647 -2818.61 511.33 -2828.64L528.67 -2837.48C548.353 -2847.51 571.648 -2847.51 591.33 -2837.48L608.67 -2828.64C628.352 -2818.61 651.648 -2818.61 671.33 -2828.64L688.67 -2837.48C708.353 -2847.51 731.648 -2847.51 751.33 -2837.48L768.67 -2828.64C788.353 -2818.61 811.648 -2818.61 831.33 -2828.64L848.67 -2837.48C868.352 -2847.51 891.648 -2847.51 911.33 -2837.48L928.67 -2828.64C948.352 -2818.61 971.648 -2818.61 991.33 -2828.64L1008.67 -2837.48C1028.35 -2847.51 1051.65 -2847.51 1071.33 -2837.48L1088.67 -2828.64C1108.35 -2818.61 1131.65 -2818.61 1151.33 -2828.64L1168.67 -2837.48C1188.35 -2847.51 1211.65 -2847.51 1231.33 -2837.48L1248.67 -2828.64C1268.35 -2818.61 1291.65 -2818.61 1311.33 -2828.64L1328.67 -2837.48C1348.35 -2847.51 1371.65 -2847.51 1391.33 -2837.48L1408.67 -2828.64C1428.35 -2818.61 1451.65 -2818.61 1471.33 -2828.64L1488.67 -2837.48C1508.35 -2847.51 1531.65 -2847.51 1551.33 -2837.48L1568.67 -2828.64C1588.35 -2818.61 1611.65 -2818.61 1631.33 -2828.64L1648.67 -2837.48C1668.35 -2847.51 1691.65 -2847.51 1711.33 -2837.48L1728.67 -2828.64C1748.35 -2818.61 1771.65 -2818.61 1791.33 -2828.64L1808.67 -2837.48C1828.35 -2847.51 1851.65 -2847.51 1871.33 -2837.48L1882.33 -2831.87C1905.45 -2820.09 1920 -2796.34 1920 -2770.39V32.1299C1920 63.4399 1886.93 83.7 1859.04 69.49C1847.08 63.39 1832.92 63.39 1820.96 69.49L1791.33 84.5901C1771.65 94.6201 1748.35 94.6201 1728.67 84.5901L1711.33 75.75C1691.65 65.72 1668.35 65.72 1648.67 75.75L1631.33 84.5901C1611.65 94.6201 1588.35 94.6201 1568.67 84.5901L1551.33 75.75C1531.65 65.72 1508.35 65.72 1488.67 75.75L1471.33 84.5901C1451.65 94.6201 1428.35 94.6201 1408.67 84.5901L1391.33 75.75C1371.65 65.72 1348.35 65.72 1328.67 75.75L1311.33 84.5901C1291.65 94.6201 1268.35 94.6201 1248.67 84.5901L1231.33 75.75C1211.65 65.72 1188.35 65.72 1168.67 75.75L1151.33 84.5901C1131.65 94.6201 1108.35 94.6201 1088.67 84.5901L1071.33 75.75C1051.65 65.72 1028.35 65.72 1008.67 75.75L991.33 84.5901C971.648 94.6201 948.352 94.6201 928.67 84.5901L911.33 75.75C891.648 65.72 868.352 65.72 848.67 75.75L831.33 84.5901C811.648 94.6201 788.353 94.6201 768.67 84.5901L751.33 75.75C731.648 65.72 708.352 65.72 688.67 75.75L671.33 84.5901C651.648 94.6201 628.352 94.6201 608.67 84.5901L591.33 75.75C571.648 65.72 548.353 65.72 528.67 75.75L511.33 84.5901C491.647 94.6201 468.353 94.6201 448.67 84.5901L431.33 75.75C411.647 65.72 388.352 65.72 368.67 75.75L351.33 84.5901C331.648 94.6201 308.353 94.6201 288.67 84.5901L271.33 75.75C251.647 65.72 228.352 65.72 208.67 75.75L191.33 84.5901C171.647 94.6201 148.352 94.6201 128.67 84.5901L99.0369 69.49C87.0774 63.39 72.9227 63.39 60.9632 69.49Z" fill="#FFEBCC"/>
</g>
<defs>
<clipPath id="clip0_16_2">
<rect width="1920" height="93" fill="white"/>
</clipPath>
</defs>
</svg>
