
<svg width="1841" height="67" viewBox="0 0 1841 67" fill="none" xmlns="http://www.w3.org/2000/svg">
<g clip-path="url(#clip0_32_2)">
<path fill-rule="evenodd" clip-rule="evenodd" d="M50.6851 59.65C27.7056 71.93 -0.0606796 55.2399 9.96069e-05 29.1899L4.47718 -1889.98C4.53645 -1915.39 18.5521 -1938.71 40.9598 -1950.68L48.7767 -1954.86C69.0955 -1965.71 93.4921 -1965.71 113.811 -1954.86L125.497 -1948.61C145.816 -1937.76 170.213 -1937.76 190.532 -1948.61L202.218 -1954.86C222.537 -1965.71 246.933 -1965.71 267.252 -1954.86L278.938 -1948.61C299.257 -1937.76 323.654 -1937.76 343.973 -1948.61L355.659 -1954.86C375.978 -1965.71 400.374 -1965.71 420.693 -1954.86L432.379 -1948.61C452.698 -1937.76 477.095 -1937.76 497.414 -1948.61L509.098 -1954.86C529.417 -1965.71 553.814 -1965.71 574.133 -1954.86L585.818 -1948.61C606.137 -1937.76 630.534 -1937.76 650.853 -1948.61L662.539 -1954.86C682.858 -1965.71 707.255 -1965.71 727.574 -1954.86L739.259 -1948.61C759.578 -1937.76 783.975 -1937.76 804.294 -1948.61L815.98 -1954.86C836.299 -1965.71 860.695 -1965.71 881.014 -1954.86L892.701 -1948.61C913.019 -1937.76 937.416 -1937.76 957.735 -1948.61L969.424 -1954.86C989.743 -1965.71 1014.14 -1965.71 1034.46 -1954.86L1046.14 -1948.61C1066.46 -1937.76 1090.86 -1937.76 1111.18 -1948.61L1122.86 -1954.86C1143.18 -1965.71 1167.58 -1965.71 1187.9 -1954.86L1199.58 -1948.61C1219.9 -1937.76 1244.3 -1937.76 1264.62 -1948.61L1276.31 -1954.86C1296.62 -1965.71 1321.02 -1965.71 1341.34 -1954.86L1353.03 -1948.61C1373.34 -1937.76 1397.74 -1937.76 1418.06 -1948.61L1429.75 -1954.86C1450.07 -1965.71 1474.46 -1965.71 1494.78 -1954.86L1506.47 -1948.61C1526.79 -1937.76 1551.18 -1937.76 1571.5 -1948.61L1583.19 -1954.86C1603.51 -1965.71 1627.9 -1965.71 1648.22 -1954.86L1659.91 -1948.61C1680.23 -1937.76 1704.62 -1937.76 1724.94 -1948.61L1736.63 -1954.86C1756.95 -1965.71 1781.34 -1965.71 1801.66 -1954.86L1809.29 -1950.78C1831.8 -1938.76 1845.83 -1915.29 1845.77 -1889.76L1841.29 29.29C1841.23 55.37 1813.43 71.99 1790.43 59.7C1775.45 51.7 1756.88 55.76 1746.61 69.28L1714.03 112.17C1698.87 132.12 1671.46 138.11 1649.36 126.3C1627.25 114.49 1599.84 120.48 1584.68 140.44L1560.59 172.16C1545.43 192.11 1518.02 198.1 1495.91 186.29C1473.81 174.48 1446.4 180.47 1431.24 200.43L1407.14 232.15C1391.98 252.1 1364.58 258.09 1342.47 246.28C1320.37 234.47 1292.96 240.46 1277.8 260.42L1259.74 284.19C1241.1 308.72 1207.41 316.09 1180.23 301.57C1161.76 291.7 1139.58 291.7 1121.11 301.57L1106.47 309.39C1086.15 320.25 1061.75 320.25 1041.43 309.39L1029.75 303.15C1009.43 292.29 985.033 292.29 964.714 303.15L953.028 309.39C932.709 320.25 908.313 320.25 887.994 309.39L876.308 303.15C855.989 292.29 831.592 292.29 811.273 303.15L799.587 309.39C779.269 320.25 754.872 320.25 734.553 309.39L719.91 301.57C701.439 291.7 679.26 291.7 660.789 301.57C633.616 316.09 599.921 308.72 581.283 284.19L563.22 260.42C548.059 240.46 520.652 234.47 498.549 246.28C476.445 258.09 449.038 252.1 433.877 232.15L409.779 200.43C394.618 180.47 367.211 174.48 345.108 186.29C323.005 198.1 295.597 192.11 280.437 172.16L256.338 140.44C241.177 120.48 213.77 114.49 191.667 126.3C169.564 138.11 142.156 132.12 126.996 112.17L94.3514 69.2C84.1151 55.72 65.6092 51.68 50.6851 59.65Z" fill="url(#paint0_linear_32_2)"/>
</g>
<defs>
<linearGradient id="paint0_linear_32_2" x1="925.216" y1="-1427.82" x2="900.313" y2="-593.02" gradientUnits="userSpaceOnUse">
<stop stop-color="#FFF5E6"/>
<stop offset="1" stop-color="#FFF2DF"/>
</linearGradient>
<clipPath id="clip0_32_2">
<rect width="1841" height="67" fill="white"/>
</clipPath>
</defs>
</svg>
