<svg width="32" height="32" viewBox="0 0 32 32" fill="none" xmlns="http://www.w3.org/2000/svg">
<rect width="32" height="32" rx="4" fill="#FF4F5A"/>
<path d="M12.4324 20.7444C12.5048 20.5919 12.6112 20.4504 12.7371 20.2916C12.7371 20.2915 12.7372 20.2914 12.7372 20.2913C12.7555 20.2679 12.7746 20.2438 12.7941 20.2187C12.953 20.0135 13.1519 19.749 13.4052 19.3305C13.6876 18.8636 14.0101 18.5495 14.2503 18.3804C14.295 18.3491 14.3318 18.3089 14.4024 18.2035C14.4487 18.1344 14.5082 18.0392 14.5957 17.9004C14.6422 17.8266 14.6971 17.7395 14.7602 17.6414C14.9709 17.3124 15.2638 16.7706 15.5389 16.2791C15.7068 15.9787 15.8677 15.6965 15.9977 15.4856C16.1872 15.1782 16.3898 14.8917 16.6129 14.5827C16.8171 14.3001 17.039 13.9977 17.2864 13.6432C17.4768 13.3706 17.7381 13.1565 18.0137 12.9479C18.0487 12.9213 18.0841 12.8948 18.1195 12.8683C18.364 12.6856 18.6149 12.5018 18.8459 12.2762C19.2574 11.8748 19.4895 11.4864 19.7551 11.0592C19.8591 10.8922 19.9695 10.7181 20.0972 10.5381C20.3001 10.2518 20.6221 9.86156 20.9574 9.48263C20.9858 9.45041 21.015 9.41735 21.0439 9.38499C21.044 9.38482 21.0442 9.38466 21.0443 9.38449C21.3542 9.0367 21.6691 8.70457 21.8962 8.45529C22.2577 8.05966 22.381 7.8921 22.4803 7.75117C22.518 7.69834 22.5526 7.64998 22.5983 7.59535C22.7655 7.39587 23.0566 7.14375 23.3671 6.89937C23.3683 6.89843 23.3694 6.89748 23.3706 6.89654C23.4218 6.85617 23.5323 6.91062 23.6171 7.01744C23.702 7.12428 23.7308 7.24181 23.6816 7.28059C23.5247 7.4039 23.3678 7.53352 23.2397 7.64912C23.3102 7.74323 23.3339 7.8405 23.2916 7.87702C23.1857 7.96909 22.9196 8.32232 22.5575 8.89696C22.6047 8.8794 22.6462 8.86698 22.6836 8.85733C22.7275 8.84601 22.7626 8.83908 22.7928 8.83316C22.8557 8.82065 22.8964 8.81341 22.9541 8.78088C23.0733 8.69114 23.239 8.53687 23.4192 8.37715C23.4651 8.33646 23.5762 8.38602 23.6674 8.48737C23.7586 8.5888 23.7966 8.70244 23.7523 8.7418C23.7515 8.74258 23.7506 8.74337 23.7498 8.74415C23.5766 8.8975 23.41 9.05263 23.2881 9.14347C23.2571 9.16653 23.2302 9.1843 23.2089 9.19745C23.1919 9.20787 23.1703 9.22061 23.1551 9.2245C23.1531 9.22502 23.1492 9.22591 23.1439 9.22648C23.1438 9.22647 23.1437 9.22646 23.1436 9.22645C23.1407 9.22678 23.126 9.22851 23.103 9.22318C23.0983 9.22211 23.0881 9.2196 23.0732 9.21381C23.0713 9.21418 23.0693 9.21456 23.0674 9.21493C23.0401 9.22017 23.0123 9.22561 22.9835 9.23285C22.8713 9.26095 22.7034 9.3217 22.4192 9.50734C22.155 9.68139 21.7814 10.0425 21.3651 10.5417C21.4012 10.5144 21.4371 10.4869 21.4727 10.4593C21.5622 10.39 21.6505 10.3199 21.738 10.2501C21.7716 10.2232 21.8043 10.1973 21.8384 10.1697C21.893 10.1258 21.9475 10.082 22.0019 10.0384C22.0386 10.0089 22.0753 9.97952 22.1119 9.95037C22.112 9.95029 22.1121 9.95022 22.1121 9.95014C22.163 9.90968 22.2141 9.86951 22.2657 9.82957C22.2839 9.81588 22.3021 9.80182 22.3202 9.78796C22.3919 9.73279 22.4623 9.67908 22.5521 9.62663C22.5639 9.62115 22.5776 9.61591 22.5882 9.6124C22.5994 9.60855 22.6105 9.60507 22.6213 9.60208C22.6308 9.59944 22.6401 9.59715 22.6489 9.59487C22.6501 9.59456 22.6513 9.59425 22.6524 9.59394C22.6623 9.59139 22.6716 9.58885 22.6805 9.58635C22.6893 9.58387 22.6979 9.58148 22.7059 9.57877C22.7059 9.57873 22.706 9.57868 22.706 9.57862C22.7143 9.57574 22.7206 9.57354 22.7288 9.56995C22.7392 9.56542 22.7477 9.56129 22.7576 9.55577C22.7671 9.55045 22.7767 9.54456 22.7861 9.53837C22.7955 9.53218 22.8048 9.52564 22.8141 9.51885C22.8233 9.51214 22.8329 9.50482 22.8423 9.49747C22.8516 9.4901 22.861 9.48249 22.8704 9.47485C22.8797 9.46722 22.8892 9.4595 22.8987 9.45171C22.9205 9.4338 22.9589 9.43359 23.0059 9.45196C23.0529 9.47033 23.1044 9.50552 23.1498 9.55005C23.1952 9.5946 23.2313 9.64521 23.2505 9.69111C23.2698 9.73701 23.2705 9.77437 23.2532 9.79568C23.2484 9.80148 23.2437 9.80736 23.2389 9.81321C23.2361 9.81667 23.2331 9.82011 23.2303 9.82359C23.2225 9.83295 23.2148 9.84247 23.2068 9.85185C23.1987 9.86122 23.1905 9.87051 23.1822 9.87957C23.1739 9.88871 23.1653 9.89785 23.1562 9.90681C23.1472 9.91574 23.1376 9.92459 23.1275 9.93318C23.1176 9.94159 23.1058 9.95063 23.0945 9.95816C23.0864 9.96372 23.0756 9.96989 23.0665 9.9749C23.0569 9.98011 23.0472 9.98495 23.0376 9.98943C23.0279 9.99392 23.0184 9.99802 23.0093 10.002C23.0083 10.0024 23.0073 10.0029 23.0064 10.0033C22.9983 10.0068 22.9905 10.0102 22.9833 10.0135C22.9752 10.0172 22.9678 10.021 22.9609 10.0247C22.9533 10.0288 22.9492 10.0317 22.9441 10.0353C22.8833 10.0889 22.8166 10.1637 22.753 10.2358C22.7451 10.2448 22.7373 10.2536 22.7296 10.2624C22.6887 10.3092 22.6482 10.3564 22.6078 10.4039C22.5784 10.4385 22.549 10.4732 22.5195 10.5081C22.4761 10.5594 22.4324 10.6111 22.3886 10.6628C22.3612 10.6951 22.3352 10.7257 22.3081 10.7574C22.2377 10.8399 22.1664 10.9228 22.0934 11.0053C22.0203 11.0877 21.9457 11.1696 21.8692 11.2491C21.7927 11.3285 21.7103 11.4094 21.6252 11.4838C21.5622 11.5386 21.49 11.5878 21.4211 11.6319C21.384 11.6556 21.3473 11.6787 21.311 11.7014C21.3108 11.7014 21.3107 11.7015 21.3105 11.7015C21.2786 11.7215 21.2471 11.7412 21.2162 11.7612C21.1499 11.8041 21.0867 11.8481 21.0263 11.8946C20.9659 11.9412 20.9094 11.9889 20.8551 12.0402C20.8014 12.091 20.7496 12.1451 20.7011 12.2009C20.6523 12.257 20.607 12.3142 20.5615 12.376C20.5022 12.4569 20.4468 12.5398 20.3907 12.6258C20.3351 12.7112 20.2804 12.7985 20.2258 12.8863C20.2067 12.917 20.1876 12.9475 20.1687 12.9782C20.1686 12.9783 20.1685 12.9785 20.1684 12.9786C20.1334 13.0354 20.0983 13.0926 20.0633 13.1498C20.0091 13.2381 19.9547 13.3267 19.8994 13.4153C19.8441 13.5038 19.7881 13.5921 19.7298 13.6798C19.6714 13.7675 19.6099 13.8565 19.5424 13.9422C19.4823 14.0188 19.4202 14.095 19.3595 14.1696C19.3435 14.1893 19.3275 14.209 19.3115 14.2287C19.2357 14.3224 19.1643 14.4145 19.1 14.5098C19.0355 14.605 18.9772 14.7042 18.9234 14.8074C18.8698 14.9103 18.8205 15.017 18.7734 15.1271C18.7261 15.2377 18.6826 15.3485 18.6401 15.4623C18.5981 15.5754 18.5577 15.6897 18.5179 15.8069C18.4957 15.8719 18.4704 15.9398 18.4456 16.0033C18.4205 16.0674 18.3946 16.1303 18.3687 16.192C18.3581 16.2171 18.3476 16.2419 18.3371 16.2666C18.3217 16.303 18.3065 16.3389 18.2918 16.3745C18.267 16.4345 18.2438 16.4935 18.2232 16.5518C18.2026 16.6102 18.1848 16.6679 18.1709 16.7256C18.1565 16.7853 18.148 16.8359 18.1413 16.8994C18.113 17.0474 18.0823 17.1307 18.0485 17.2233C18.0418 17.2415 18.0352 17.2602 18.0283 17.2797C17.9868 17.3899 17.9417 17.4968 17.8935 17.6026C17.845 17.7088 17.7948 17.8114 17.7417 17.9133C17.6894 18.0136 17.6328 18.1154 17.5748 18.2146C17.5168 18.3137 17.4568 18.4109 17.3947 18.5064C17.3324 18.6023 17.2652 18.701 17.1995 18.7927C17.1615 18.8459 17.1195 18.9012 17.0798 18.952C17.0511 18.9887 17.0227 19.0242 16.9941 19.0605C16.9825 19.0751 16.9709 19.0897 16.9596 19.1041C16.9204 19.1539 16.8829 19.2024 16.8486 19.25C16.8142 19.2977 16.7829 19.3446 16.7553 19.3919C16.7274 19.4396 16.7041 19.486 16.6821 19.5373C16.6599 19.5897 16.6439 19.6344 16.627 19.6931C16.6161 19.7314 16.6058 19.7689 16.5955 19.8062C16.5802 19.8621 16.5655 19.9176 16.5512 19.9734C16.5372 20.0286 16.5229 20.0852 16.5092 20.1421C16.5048 20.1604 16.5002 20.1797 16.496 20.198C16.4829 20.2547 16.4706 20.3107 16.4594 20.3669C16.4482 20.4229 16.438 20.4786 16.4291 20.5344C16.4205 20.5897 16.4116 20.6472 16.4042 20.7054C16.3916 20.8045 16.3652 20.8908 16.3395 20.9643C16.3131 21.0391 16.2865 21.1043 16.2579 21.1729C16.2527 21.1855 16.2475 21.198 16.2423 21.2106C16.2198 21.2647 16.1978 21.3174 16.1772 21.3695C16.1518 21.4336 16.1283 21.4967 16.1064 21.5601C16.0841 21.6238 16.0619 21.6911 16.0427 21.7563C16.0234 21.8224 16.0065 21.8857 15.9906 21.9542C15.975 22.0211 15.9622 22.0934 15.9481 22.173C15.9342 22.2515 15.9199 22.3327 15.9032 22.4125C15.8872 22.4911 15.8664 22.5738 15.8432 22.6533C15.82 22.7329 15.7946 22.81 15.7676 22.8836C15.7409 22.9565 15.708 23.0358 15.6764 23.1076C15.6441 23.1808 15.611 23.2506 15.5761 23.32C15.5225 23.4265 15.47 23.5285 15.419 23.6266L13.39 26.974L11.9606 23.8181C11.9577 23.8124 11.9547 23.8067 11.9516 23.8009C11.9059 23.7135 11.8548 23.62 11.8031 23.528C11.7495 23.4332 11.697 23.3424 11.6389 23.2455C11.5837 23.1527 11.5228 23.0539 11.4639 22.9599C11.4506 22.9388 11.4372 22.9176 11.4237 22.8963C11.3754 22.8206 11.3279 22.7471 11.2784 22.6722C11.2781 22.6716 11.2778 22.6711 11.2775 22.6706C11.2129 22.5733 11.1508 22.4812 11.0834 22.3857C11.0585 22.3505 11.0355 22.3182 11.0109 22.2846C10.9865 22.2512 10.962 22.2184 10.9367 22.1855C10.9114 22.1525 10.8857 22.1201 10.8603 22.0889C10.8344 22.0574 10.8086 22.0268 10.7815 21.9966C10.7568 21.9689 10.7312 21.942 10.7032 21.9125C10.7007 21.9098 10.6982 21.9072 10.6957 21.9046C10.6654 21.8727 10.6318 21.8356 10.6026 21.799C10.5255 21.7015 10.4485 21.6088 10.3673 21.5154C10.2858 21.4216 10.2034 21.3308 10.1179 21.239C10.0846 21.2033 10.051 21.1678 10.0173 21.1321C9.96497 21.0767 9.91193 21.0209 9.85912 20.9651C9.77212 20.8732 9.68523 20.7803 9.59928 20.6855C9.51369 20.591 9.42893 20.4943 9.34642 20.3962C9.26421 20.2984 9.18218 20.1972 9.10361 20.0964C9.01557 19.9834 8.92919 19.871 8.84142 19.7574C8.75401 19.644 8.66674 19.5308 8.57937 19.4179C8.49277 19.3058 8.40347 19.1915 8.31626 19.0798C8.22723 18.9663 8.1402 18.8553 8.05076 18.7427C7.99804 18.676 7.94483 18.609 7.89121 18.5421C7.85048 18.5203 7.81149 18.4999 7.77429 18.4805C7.49594 18.3345 7.29551 18.2335 7.05723 18.0814C7.03253 18.0682 7.0102 18.0604 6.98327 18.051C6.97814 18.0492 6.97277 18.0473 6.96725 18.0453C6.93221 18.033 6.89369 18.0187 6.84646 17.9907C6.74959 17.9328 6.62659 17.826 6.53456 17.6083C6.51136 17.5535 6.56594 17.4297 6.65549 17.3305C6.71843 17.2609 6.78282 17.2227 6.82491 17.2262C6.78341 17.1739 6.74316 17.1224 6.70147 17.0709C6.6852 17.0505 6.68488 17.0122 6.70052 16.9633C6.7162 16.9143 6.74631 16.8588 6.78479 16.8082C6.8233 16.7577 6.86742 16.7161 6.90859 16.6925C6.94971 16.6689 6.98447 16.6654 7.00546 16.6823C7.06256 16.7285 7.11508 16.7722 7.17143 16.8187C7.22939 16.8664 7.28156 16.9093 7.33894 16.9563C7.39733 17.0041 7.45047 17.0475 7.50833 17.0947C7.56662 17.1422 7.62119 17.1868 7.67882 17.2338C7.73718 17.2815 7.79307 17.3269 7.85033 17.3739C7.88471 17.402 7.92001 17.4312 7.95468 17.4597C7.96719 17.47 7.97957 17.48 7.9919 17.4901C8.00197 17.4984 8.01207 17.5068 8.02252 17.5155C8.13397 17.6074 8.24419 17.6991 8.35623 17.7933C8.46585 17.8853 8.57868 17.9813 8.6878 18.0747C8.79914 18.1702 8.90774 18.2638 9.01862 18.3607C9.12735 18.4555 9.23838 18.5535 9.34655 18.6494C9.45557 18.7461 9.56421 18.8434 9.673 18.9412C9.75751 19.0172 9.83999 19.0911 9.92388 19.1666C9.96394 19.1894 10.0029 19.2123 10.0411 19.2351C10.1524 19.3016 10.2718 19.3623 10.3889 19.4219C10.221 19.2767 10.0734 19.1731 9.93194 19.0748C9.91299 19.0616 9.89415 19.0487 9.87544 19.0357C9.6847 18.9036 9.50253 18.7726 9.29753 18.56C8.71125 17.954 8.35825 17.6174 8.15282 17.3924C7.94676 17.1684 7.87745 17.049 7.84509 16.8993C7.79753 16.6858 7.58796 16.4192 7.45298 16.3134C7.40737 16.2771 7.43243 16.1566 7.51477 16.0478C7.59632 15.9385 7.70651 15.8838 7.75452 15.9219C7.90287 16.038 8.14338 16.3318 8.20078 16.5875C8.22761 16.7024 8.27955 16.8045 8.48692 17.0291C8.69347 17.2546 9.04953 17.5935 9.64496 18.2086C9.84531 18.4163 10.0222 18.5442 10.2132 18.6771C10.2319 18.6901 10.2509 18.7032 10.27 18.7164C10.2701 18.7165 10.2702 18.7166 10.2703 18.7167C10.4464 18.8396 10.6371 18.9739 10.8637 19.1863C11.3877 19.673 12.0841 20.3443 12.2676 20.4913C12.3039 20.5196 12.3397 20.5458 12.3781 20.5743C12.5242 20.6837 12.7016 20.8125 13.0265 21.1743C13.0978 21.2542 13.1765 21.35 13.2594 21.458C13.435 21.5824 13.6021 21.7095 13.7315 21.8321C13.8447 21.9399 13.9702 22.023 14.0993 22.1053C14.1364 22.1288 14.1733 22.1509 14.2115 22.1757C14.2904 22.2265 14.3683 22.2777 14.4388 22.3312L12.7917 22.4224C12.7919 22.4089 12.7923 22.3954 12.7928 22.382C12.796 22.3071 12.7961 22.2254 12.7972 22.1373C12.8007 21.8179 12.8042 21.4406 13.001 21.0296C13.2085 20.5965 13.4166 20.2428 13.5996 19.9421C13.4541 20.159 13.3307 20.3204 13.2255 20.4558C13.2057 20.481 13.1868 20.5051 13.1687 20.5282C13.0422 20.6878 12.9442 20.8179 12.8775 20.9585C12.5552 21.6397 12.4675 21.931 12.4443 22.2632L14.7666 22.1346C14.7634 22.1319 14.7602 22.1292 14.7571 22.1265C14.6818 22.0633 14.59 21.9954 14.4924 21.9277C14.2982 21.7931 14.0729 21.6462 13.8761 21.473C13.6907 21.3085 13.4674 21.1458 13.2278 20.9785C13.2277 20.9784 13.2276 20.9784 13.2276 20.9783C13.1811 20.9461 13.1339 20.9135 13.0861 20.8806C12.7958 20.6811 12.4915 20.4772 12.2212 20.2622C12.192 20.2389 12.1568 20.2127 12.1157 20.1822C11.8782 20.0056 11.4631 19.7047 11.0988 19.2064C11.0188 19.097 10.9474 18.9713 10.8654 18.8286C10.8404 18.7852 10.8142 18.7397 10.7865 18.6929C10.6672 18.4915 10.5134 18.2514 10.2751 17.9657C10.0778 17.7295 9.81931 17.4586 9.54543 17.1822C9.41152 17.0469 9.27296 16.9091 9.13489 16.7719C8.72233 16.3626 8.34183 15.9781 7.92915 15.6084C7.92906 15.6083 7.92898 15.6083 7.92889 15.6082C7.87858 15.5635 7.90511 15.4402 7.98825 15.3321C8.07101 15.2238 8.18239 15.174 8.2344 15.22C8.66541 15.6044 9.05056 15.9936 9.46956 16.4086C9.60782 16.5458 9.74759 16.6846 9.88295 16.8212C10.1623 17.103 10.4278 17.3808 10.6298 17.6223C10.8755 17.9162 11.0343 18.1632 11.1572 18.3697C11.1869 18.4196 11.2145 18.467 11.2403 18.5117C11.3228 18.6544 11.3906 18.7737 11.4676 18.8788C11.8255 19.3671 12.2298 19.6618 12.4712 19.8424C12.5138 19.8743 12.551 19.9023 12.582 19.9271C12.851 20.1421 13.1543 20.347 13.4489 20.5511C13.4969 20.5845 13.5445 20.6178 13.5916 20.6508C13.5917 20.6509 13.5919 20.6509 13.592 20.651C13.8351 20.8218 14.0673 20.9934 14.26 21.1656C14.4547 21.3391 14.6604 21.4732 14.8549 21.6107C14.9572 21.6813 15.0596 21.7587 15.1507 21.8369C15.1661 21.8501 15.1812 21.8634 15.1961 21.8768L11.9889 22.0545C12.0188 21.7167 12.1189 21.4066 12.4324 20.7444ZM6.89053 17.3078C6.95601 17.4384 7.03525 17.5201 7.10168 17.5697C7.05545 17.5132 7.01269 17.4593 6.96603 17.4021C6.94019 17.3702 6.91503 17.3388 6.89053 17.3078ZM12.8744 21.7675C12.8535 21.753 12.8321 21.7379 12.8113 21.7237C12.8546 21.7751 12.8979 21.8274 12.94 21.8788C12.9914 21.9415 13.0435 22.0067 13.0944 22.0711C13.0195 21.9628 12.9465 21.8619 12.8744 21.7675ZM13.4462 21.2441C13.2623 21.6282 13.2578 21.9757 13.2565 22.2867C13.2551 22.3785 13.2547 22.4657 13.2512 22.5485C13.25 22.5763 13.2497 22.6043 13.2501 22.6325L14.0065 22.5906C14.0008 22.5867 13.9951 22.5828 13.9894 22.5789C13.9924 22.5844 13.9955 22.5899 13.9985 22.5954L13.2585 22.6364C13.3378 22.4814 13.4221 22.3187 13.4837 22.2028C13.6851 21.8212 13.8285 21.6219 13.954 21.4476C13.9902 21.3974 14.0253 21.3487 14.0604 21.2979C14.0676 21.2453 14.0761 21.1906 14.0869 21.1358C14.1007 21.0615 14.1175 20.983 14.1362 20.9077C14.1549 20.8323 14.1762 20.7558 14.1995 20.6809C14.2233 20.6047 14.246 20.5356 14.2719 20.4637C14.2958 20.3967 14.3213 20.3299 14.3463 20.2648C14.3477 20.2611 14.3492 20.2574 14.3506 20.2536C14.3772 20.1844 14.4028 20.118 14.4228 20.0568C14.4433 19.9941 14.4574 19.9399 14.4633 19.8882C14.4708 19.8236 14.48 19.7578 14.4906 19.6929C14.5014 19.6274 14.5127 19.5644 14.5248 19.5025C14.5371 19.4402 14.5504 19.3787 14.5648 19.3172C14.5694 19.2973 14.5744 19.2765 14.5792 19.2568C14.5814 19.2477 14.5836 19.2386 14.5858 19.2296C14.5285 19.3354 14.4691 19.4439 14.4074 19.5542C14.315 19.72 14.2117 19.886 14.0969 20.0732C13.8994 20.3959 13.6783 20.7597 13.4462 21.2441ZM15.4083 17.6103C15.384 17.6568 15.3502 17.7256 15.3073 17.814C15.2971 17.8349 15.2866 17.857 15.2754 17.88C15.2758 17.8795 15.2761 17.879 15.2765 17.8785C15.318 17.829 15.356 17.7829 15.3956 17.7322C15.4659 17.6422 15.5344 17.5509 15.5991 17.4622C15.6646 17.3721 15.7284 17.2808 15.7907 17.188C15.8531 17.095 15.9143 16.9999 15.9718 16.9067C16.0301 16.812 16.0862 16.7172 16.1405 16.6197C16.1578 16.5886 16.1749 16.5572 16.1918 16.5257C16.141 16.5885 16.0908 16.655 16.038 16.7251C15.9959 16.781 15.9521 16.8393 15.9052 16.8999C15.8872 16.923 15.8644 16.9503 15.8377 16.9823C15.7305 17.1118 15.5652 17.3103 15.4083 17.6103ZM16.5247 15.6914C16.5351 15.6675 16.5458 15.644 16.5567 15.6209C16.588 15.5553 16.621 15.4927 16.6542 15.4317C16.6776 15.3888 16.7012 15.3468 16.7245 15.3052C16.7344 15.2876 16.744 15.2704 16.7537 15.2531C16.7698 15.2243 16.7856 15.1955 16.8013 15.167C16.6699 15.3537 16.5433 15.5417 16.4215 15.7392C16.4199 15.7418 16.4184 15.7445 16.4168 15.7472C16.4535 15.7281 16.4895 15.7095 16.5247 15.6914Z" fill="white"/>
</svg>
