<svg width="799" height="489" viewBox="0 0 799 489" fill="none" xmlns="http://www.w3.org/2000/svg">
<path d="M537.469 389.043C537.522 394.906 532.38 398.926 526.644 399.227C519.063 399.62 515.482 392.133 515.809 385.443C516.2 377.252 522.308 369.98 530.863 369.761C536.977 369.605 545.183 376.928 539.661 383.07C531.529 392.085 544.513 406.066 552.736 396.939C565.546 382.748 560.362 359.41 542.042 352.614C523.121 345.577 501.969 358.645 497.75 377.841C493.928 395.229 503.062 415.546 522.15 417.986C538.907 420.129 556.649 407.488 556.465 389.849C556.348 377.612 537.325 376.756 537.46 389.027L537.469 389.043Z" fill="#169AB2"/>
<path d="M756.779 28.7151C755.51 28.8189 754.023 29.3268 752.984 30.0396C751.319 31.1678 749.668 32.946 751.112 34.8541C758.1 44.0863 763.245 54.7755 766.337 65.9215C767.886 71.4779 769.102 77.2914 769.091 83.0858C769.087 85.9472 768.769 88.7368 767.76 91.3711C767.504 92.0463 767.206 92.7106 766.876 93.3452C766.82 93.4486 766.578 93.8519 766.588 93.8569C766.502 93.9928 766.417 94.1287 766.331 94.2646C765.995 94.7748 765.627 95.2554 765.239 95.7258C765.17 95.8097 764.804 96.1948 764.754 96.2649C764.596 96.4224 764.453 96.5756 764.286 96.728C763.985 97.0149 763.64 97.3624 763.283 97.6427C763.2 97.6831 763.118 97.7236 763.054 97.7741C762.752 97.9749 762.459 98.1807 762.147 98.3765C761.942 98.5086 761.733 98.6263 761.528 98.7585C761.421 98.822 761.319 98.8762 761.212 98.9397C760.697 99.2199 760.789 99.1845 761.465 98.809C761.151 99.2101 760.083 99.4587 759.614 99.6543C759.328 99.7792 759.043 99.8802 758.748 100C757.839 100.359 758.906 99.9762 758.999 99.917C758.531 100.223 757.73 100.312 757.191 100.458C756.579 100.625 755.958 100.763 755.334 100.887C755.17 100.92 754.402 101.04 754.585 101.017C754.373 101.049 754.148 101.084 753.937 101.116C752.656 101.286 751.369 101.38 750.073 101.421C749.815 101.427 749.557 101.434 749.299 101.44C749.213 101.442 749.151 101.445 749.088 101.448C749.041 101.446 748.969 101.444 748.898 101.442C748.182 101.419 747.481 101.393 746.78 101.342C744.116 101.154 741.085 100.659 738.754 100.08C737.284 99.7234 735.836 99.3057 734.399 98.8453C734.145 98.417 733.896 97.9793 733.637 97.5604C730.084 91.6502 726.03 86.0159 721.579 80.737C717.251 75.61 712.521 70.824 707.425 66.4471C704.765 64.162 702.011 61.9838 699.168 59.9271C696.618 58.0897 693.988 56.0634 691.101 54.784C687.47 53.1756 683.241 53.5504 679.874 55.6765C676.628 57.7347 674.952 60.9071 675.869 64.6906C676.579 67.622 678.575 70.0346 680.565 72.2129C683.007 74.902 685.522 77.5218 688.122 80.0535C698.116 89.7806 709.598 98.3932 722.645 103.543C723.716 103.963 724.793 104.351 725.884 104.733C726.946 106.653 727.93 108.604 728.794 110.599C729.848 113.05 730.805 115.726 731.249 118.296C731.46 119.501 731.564 120.747 731.558 121.969C731.558 122.6 731.528 123.239 731.465 123.873C731.431 124.182 731.393 124.501 731.35 124.805C731.36 124.787 731.213 125.508 731.218 125.499C730.944 126.613 730.517 127.741 729.95 128.746C729.9 128.816 729.71 129.102 729.65 129.19C729.495 129.41 729.34 129.63 729.175 129.844C729.026 130.031 728.844 130.212 728.713 130.408C728.64 130.477 728.575 130.552 728.501 130.621C728.354 130.76 728.206 130.899 728.049 131.032C728.044 131.042 728.039 131.051 728.024 131.055C728.068 131.043 728.087 131.029 728.131 131.016C728.082 131.038 728.029 131.07 727.98 131.092C727.848 131.203 727.731 131.261 727.659 131.283C727.464 131.42 727.278 131.562 727.116 131.682C727.189 131.66 727.237 131.638 727.324 131.612C727.223 131.642 727.135 131.692 727.038 131.737C727.038 131.737 727.028 131.755 727.014 131.76C726.896 131.842 726.776 131.886 726.689 131.912C726.684 131.921 726.66 131.921 726.65 131.939C726.441 132.033 726.224 132.122 726.006 132.211C725.548 132.34 725.1 132.474 724.648 132.57C724.508 132.604 723.54 132.712 724.369 132.638C725.221 132.564 724.186 132.661 724.071 132.671C723.549 132.741 723.022 132.796 722.495 132.828C722.28 132.845 722.069 132.853 721.859 132.86C721.72 132.87 721.152 132.867 720.971 132.866C718.858 132.781 716.759 132.534 714.686 132.107C714.695 132.112 714.373 132.035 714.173 132C713.969 131.951 713.638 131.869 713.657 131.879C713.102 131.737 712.544 131.581 711.985 131.425C710.83 131.093 709.682 130.704 708.553 130.301C706.041 129.382 703.622 128.246 701.209 127.077C689.022 121.166 677.578 113.763 667.123 105.158C664.544 103.038 662.044 100.839 659.589 98.5797C656.749 95.9545 647.735 101.015 651.011 104.045C662.024 114.201 674.301 122.89 687.487 130.008C697.583 135.458 708.861 140.83 720.682 139.579C726.921 138.918 732.878 136.309 737.022 131.508C741.131 126.748 742.009 120.561 740.886 114.554C740.453 112.233 739.759 109.99 738.906 107.819C746.493 108.772 754.206 108.19 761.487 105.35C767.677 102.939 773.075 98.6451 776.222 92.7477C779.339 86.9066 779.306 79.9117 778.376 73.5243C776.509 60.7826 772.046 48.4474 765.28 37.5024C763.558 34.7162 761.67 32.0347 759.694 29.4269C759.162 28.7272 757.506 28.6947 756.788 28.744L756.779 28.7151ZM691.393 69.1629C689.498 67.1453 687.555 65.3077 686.341 62.929C686.214 62.691 686.112 62.4537 686 62.2114C686.276 62.3967 686.567 62.5778 686.843 62.7631C689.448 64.4971 691.974 66.3338 694.434 68.2688C699.361 72.1293 703.984 76.3482 708.282 80.901C711.106 83.8934 713.772 87.0196 716.273 90.2743C712.536 87.9174 708.96 85.3076 705.538 82.5019C700.52 78.3853 695.828 73.8872 691.393 69.1629Z" fill="#02989D"/>
<g clip-path="url(#clip0_31_297)">
<g filter="url(#filter0_i_31_297)">
<path fill-rule="evenodd" clip-rule="evenodd" d="M75.2268 459.587C70.3768 468.828 56.5565 466.588 54.8745 456.288L3.85523 143.865C2.18956 133.665 7.82877 123.676 17.4226 119.833C23.8458 117.259 31.1043 117.849 37.0279 121.425L42.8506 124.941C51.9719 130.448 63.8347 128.495 70.8472 120.473C77.7396 112.589 89.3992 110.67 98.3644 116.082C107.33 121.495 118.886 119.693 125.779 111.809L126.194 111.334C133.086 103.45 144.643 101.648 153.608 107.061C162.573 112.474 174.13 110.672 181.022 102.788L181.438 102.313C188.33 94.4282 199.887 92.6268 208.852 98.0395C217.817 103.452 229.374 101.651 236.266 93.7662L236.681 93.2913C243.574 85.4068 255.13 83.6054 264.096 89.0181C273.061 94.4307 284.617 92.6293 291.51 84.7448L291.925 84.2699C298.817 76.3854 310.374 74.584 319.339 79.9967C328.304 85.4093 339.861 83.6079 346.754 75.7234L347.169 75.2485C354.061 67.364 365.618 65.5626 374.583 70.9753C383.548 76.3879 395.105 74.5865 401.997 66.702L402.412 66.2271C409.305 58.3426 420.862 56.5412 429.827 61.9539C438.792 67.3665 450.349 65.5651 457.241 57.6806L457.656 57.2057C464.549 49.3212 476.105 47.5198 485.07 52.9324C494.036 58.3451 505.592 56.5437 512.485 48.6592L512.9 48.1843C519.792 40.2998 531.349 38.4984 540.314 43.9111C549.279 49.3237 560.836 47.5223 567.728 39.6378L568.144 39.1629C575.036 31.2784 586.593 29.477 595.558 34.8896C604.523 40.3023 616.08 38.5009 622.972 30.6164L628.153 24.6903C632.664 19.5295 639.306 16.7406 646.149 17.1331C656.539 17.7292 665.123 25.4589 666.8 35.73L717.814 348.122C719.467 358.246 707.222 364.593 699.902 357.406C694.824 352.42 686.375 353.746 683.068 360.047L678.651 368.464C673.244 378.765 659.431 380.932 651.13 372.781C642.829 364.63 628.914 366.991 623.508 377.292C618.102 387.593 604.188 389.953 595.886 381.803C587.585 373.652 573.671 376.012 568.264 386.313C562.858 396.615 548.944 398.975 540.643 390.824C532.341 382.673 518.427 385.033 513.021 395.335C507.614 405.636 493.7 407.996 485.399 399.845C477.097 391.695 463.183 394.055 457.777 404.356C452.371 414.658 438.456 417.018 430.155 408.867C421.854 400.716 407.94 403.076 402.533 413.378C397.127 423.679 383.213 426.039 374.911 417.888C366.61 409.738 352.696 412.098 347.289 422.399C341.883 432.7 327.969 435.06 319.668 426.91C311.366 418.759 297.452 421.119 292.046 431.42C286.639 441.722 272.725 444.082 264.424 435.931C256.123 427.78 242.208 430.14 236.802 440.442C231.396 450.743 217.481 453.103 209.18 444.952C200.879 436.802 186.965 439.162 181.558 449.463C176.152 459.765 162.238 462.125 153.936 453.974C145.635 445.823 131.721 448.183 126.315 458.485C120.908 468.786 106.994 471.146 98.6927 462.995L92.4669 456.882C87.2666 451.776 78.6135 453.134 75.2268 459.587Z" fill="#FF4F5A"/>
</g>
<rect x="52.0018" y="179.388" width="245" height="240" rx="19.5" transform="rotate(-9.27464 52.0018 179.388)" fill="url(#paint0_linear_31_297)"/>
<rect x="52.0018" y="179.388" width="245" height="240" rx="19.5" transform="rotate(-9.27464 52.0018 179.388)" stroke="white" style="mix-blend-mode:overlay"/>
<g clip-path="url(#clip1_31_297)">
<path d="M204.22 263.091L195.999 256.338L181.964 258.765L175.484 268.059C156.184 277.755 144.591 299.272 148.456 321.629C153.184 348.981 179.284 367.387 206.635 362.658C233.987 357.93 252.393 331.831 247.664 304.479C243.799 282.122 225.655 265.745 204.22 263.091ZM238.874 227.114L212.058 190.199C210.931 188.647 209.019 187.871 207.127 188.198L178.307 193.18L178.741 202.422L208.051 247.98L216.482 252.516L238.089 233.884C240.072 232.175 240.412 229.232 238.874 227.114ZM151.634 207.479L143.63 202.029L130.763 245.804C130.025 248.315 131.335 250.973 133.776 251.918L175.484 268.058L175.082 256.085L151.634 207.479Z" fill="url(#paint1_linear_31_297)"/>
<path d="M216.993 299.907L205.607 300.13L198.756 290.328C197.638 288.729 195.696 287.92 193.772 288.252C191.849 288.585 190.291 289.999 189.775 291.881L186.612 303.413L175.811 307.026C174.022 307.625 172.718 309.174 172.432 311.039C172.147 312.904 172.929 314.772 174.457 315.878L184.077 322.842L184.193 335.064C184.211 336.991 185.329 338.739 187.071 339.565C188.813 340.39 190.874 340.148 192.378 338.942L201.298 331.785L212.103 335.532C213.934 336.167 215.954 335.692 217.311 334.337C218.675 332.975 219.141 330.953 218.511 329.131L214.517 317.58L221.241 307.791C222.31 306.236 222.418 304.213 221.523 302.553C220.629 300.891 218.88 299.87 216.993 299.907ZM189.485 263.45C194.478 262.587 199.432 262.497 204.22 263.089L208.782 259.157L216.482 252.516L178.307 193.18L147.602 198.488C145.711 198.815 144.17 200.188 143.63 202.029L175.483 268.057C179.795 265.891 184.491 264.313 189.485 263.45Z" fill="url(#paint2_linear_31_297)"/>
</g>
<path d="M363.189 205.961L357.774 172.8L370.943 170.649C374.48 170.072 377.504 170.616 380.013 172.281C382.554 173.941 384.064 176.24 384.543 179.177C385.131 182.777 384.522 185.795 382.715 188.23C380.934 190.628 378.212 192.127 374.548 192.725L368.485 193.715L370.295 204.8L363.189 205.961ZM367.44 187.32L373.504 186.33C374.893 186.103 375.961 185.491 376.706 184.494C377.477 183.46 377.752 182.264 377.53 180.906C377.309 179.548 376.67 178.517 375.615 177.814C374.586 177.074 373.377 176.818 371.988 177.045L365.924 178.035L367.44 187.32ZM392.971 201.097L388.909 176.227L395.873 175.09L396.546 179.211L404.212 173.144L405.404 180.439L397.683 186.175L399.934 199.96L392.971 201.097ZM432.931 191.41C430.728 194.202 427.716 195.91 423.895 196.534C420.074 197.158 416.659 196.5 413.651 194.559C410.669 192.582 408.866 189.682 408.242 185.861C407.618 182.04 408.408 178.733 410.61 175.942C412.84 173.113 415.865 171.387 419.686 170.763C423.508 170.139 426.909 170.816 429.891 172.793C432.899 174.734 434.715 177.615 435.339 181.436C435.963 185.257 435.161 188.582 432.931 191.41ZM416.358 179.867C415.328 181.299 414.959 182.916 415.253 184.716C415.547 186.516 416.411 187.931 417.843 188.962C419.276 189.993 420.94 190.353 422.835 190.044C424.73 189.734 426.193 188.863 427.223 187.43C428.254 185.997 428.622 184.381 428.328 182.581C428.034 180.781 427.171 179.365 425.738 178.335C424.305 177.304 422.641 176.944 420.746 177.253C418.851 177.563 417.389 178.434 416.358 179.867ZM450.419 192.154C447.735 192.592 445.427 192.061 443.496 190.561C441.565 189.06 440.39 187.031 439.973 184.473L437.335 168.319L444.204 167.197L446.532 181.456C446.744 182.751 447.327 183.742 448.282 184.429C449.269 185.111 450.362 185.354 451.563 185.158C452.889 184.941 453.88 184.358 454.535 183.408C455.186 182.426 455.408 181.304 455.201 180.041L452.873 165.781L459.742 164.66L463.006 184.651L465.509 189.252L457.787 190.513L456.517 188.094C455.357 190.326 453.325 191.679 450.419 192.154ZM480.483 187.244C477.072 187.801 473.976 187.107 471.194 185.162C468.412 183.217 466.704 180.302 466.07 176.418C465.451 172.628 466.162 169.334 468.201 166.537C470.241 163.74 472.935 162.068 476.283 161.521C477.862 161.263 479.411 161.318 480.93 161.686C482.444 162.022 483.642 162.605 484.523 163.434L482.411 150.501L489.28 149.379L495.004 184.435L488.135 185.557L487.687 182.809C487.115 183.875 486.168 184.824 484.844 185.656C483.516 186.457 482.062 186.986 480.483 187.244ZM474.139 170.431C473.134 171.827 472.782 173.441 473.081 175.273C473.38 177.104 474.23 178.538 475.632 179.574C477.059 180.573 478.736 180.915 480.663 180.6C482.558 180.291 484.02 179.42 485.051 177.987C486.082 176.554 486.45 174.938 486.156 173.137C485.862 171.337 484.999 169.922 483.566 168.891C482.133 167.861 480.469 167.5 478.574 167.81C476.648 168.124 475.169 168.998 474.139 170.431ZM372.859 265.176L367.444 232.016L377.629 230.352L388.59 251.908L392.125 227.985L402.215 226.337L407.63 259.498L400.761 260.62L397.272 239.255L393.987 261.726L386.455 262.956L376.239 242.69L379.728 264.055L372.859 265.176ZM435.246 251.827C433.043 254.619 430.031 256.327 426.209 256.951C422.388 257.575 418.973 256.916 415.965 254.976C412.983 252.998 411.181 250.099 410.556 246.278C409.932 242.456 410.722 239.15 412.925 236.358C415.154 233.53 418.179 231.804 422.001 231.18C425.822 230.556 429.224 231.233 432.205 233.21C435.213 235.15 437.03 238.031 437.654 241.853C438.278 245.674 437.475 248.999 435.246 251.827ZM418.672 240.283C417.642 241.716 417.274 243.333 417.568 245.133C417.862 246.933 418.725 248.348 420.158 249.379C421.591 250.409 423.254 250.77 425.149 250.461C427.044 250.151 428.507 249.28 429.538 247.847C430.568 246.414 430.936 244.798 430.642 242.998C430.348 241.198 429.485 239.782 428.052 238.752C426.619 237.721 424.956 237.361 423.061 237.67C421.166 237.979 419.703 238.851 418.672 240.283ZM444.184 253.529L440.123 228.658L446.992 227.537L447.487 230.568C447.89 229.465 448.609 228.505 449.643 227.687C450.671 226.838 451.928 226.293 453.412 226.05C456.476 225.55 459.025 226.269 461.06 228.206C462.53 225.696 464.876 224.178 468.098 223.652C470.782 223.214 473.182 223.714 475.297 225.151C477.408 226.558 478.654 228.429 479.035 230.766L481.751 247.394L474.882 248.516L472.553 234.257C472.342 232.962 471.758 231.971 470.803 231.284C469.879 230.592 468.817 230.344 467.617 230.54C466.291 230.756 465.318 231.353 464.7 232.329C464.076 233.274 463.867 234.378 464.073 235.642L466.402 249.901L459.533 251.022L457.204 236.763C456.993 235.468 456.409 234.477 455.454 233.79C454.531 233.098 453.469 232.85 452.269 233.046C450.942 233.263 449.97 233.859 449.351 234.836C448.727 235.781 448.518 236.885 448.725 238.148L451.053 252.407L444.184 253.529ZM499.057 245.006C494.983 245.671 491.563 244.981 488.797 242.936C486.031 240.891 484.347 238.021 483.743 234.326C483.145 230.663 483.876 227.398 485.938 224.533C488.03 221.662 491.003 219.912 494.856 219.283C498.804 218.638 502.108 219.411 504.768 221.603C507.459 223.79 509.089 226.621 509.656 230.095L510.066 232.605L491.164 235.692C491.839 237.041 492.772 237.991 493.964 238.542C495.188 239.088 496.558 239.237 498.074 238.989C499.78 238.711 501.112 238.137 502.073 237.267C503.06 236.36 503.691 235.462 503.968 234.574L509.689 236.85C509.263 238.411 508.166 240.033 506.398 241.716C504.631 243.398 502.183 244.495 499.057 245.006ZM490.425 230.268L502.031 228.373C501.75 227.446 501.048 226.621 499.924 225.896C498.827 225.135 497.426 224.894 495.721 225.172C494.426 225.384 493.285 225.943 492.298 226.85C491.306 227.725 490.682 228.865 490.425 230.268ZM516.168 241.774L512.107 216.903L518.976 215.781L519.471 218.813C519.874 217.71 520.609 216.747 521.674 215.924C522.734 215.07 524.007 214.522 525.491 214.28C528.144 213.847 530.431 214.349 532.351 215.786C534.298 217.186 535.465 219.071 535.852 221.439L538.575 238.115L531.706 239.236L529.378 224.977C529.166 223.682 528.567 222.694 527.58 222.012C526.625 221.325 525.548 221.08 524.347 221.276C523.021 221.492 522.033 222.091 521.382 223.073C520.727 224.023 520.502 225.13 520.709 226.393L523.037 240.652L516.168 241.774ZM546.323 236.849L543.306 218.374L539.326 219.024L538.282 212.629L542.403 211.956L541.452 206.129L548.179 205.03L549.13 210.857L555.052 209.89L556.096 216.285L550.175 217.252L552.109 229.096L558.125 228.113L559.208 234.745L546.323 236.849ZM573.306 232.881C570.369 233.36 567.85 233.123 565.749 232.169C563.642 231.184 562.066 229.772 561.02 227.932L566.264 224.304C567.745 226.429 569.892 227.262 572.703 226.803C573.966 226.596 574.903 226.281 575.515 225.857C576.121 225.401 576.383 224.921 576.301 224.415C576.167 223.594 575.4 223.168 574.001 223.137L568.825 223.01C563.98 222.926 561.222 220.831 560.552 216.725C560.16 214.325 560.824 212.239 562.545 210.466C564.297 208.688 566.61 207.565 569.484 207.096C572.39 206.621 574.809 206.842 576.742 207.759C578.675 208.675 580.094 210.016 580.998 211.781L575.889 215.339C575.56 214.517 574.873 213.884 573.827 213.439C572.808 212.956 571.636 212.824 570.309 213.04C569.362 213.195 568.616 213.495 568.073 213.941C567.525 214.354 567.292 214.814 567.374 215.319C567.508 216.14 568.325 216.574 569.824 216.621L575.048 216.741C577.357 216.785 579.22 217.373 580.637 218.503C582.08 219.597 582.948 221.044 583.242 222.844C583.634 225.244 582.978 227.378 581.272 229.245C579.562 231.081 576.906 232.293 573.306 232.881ZM392.933 316.03C397.07 315.354 398.974 314.006 398.644 311.985C398.422 310.627 397.212 309.868 395.014 309.708L389.104 309.262C382.667 308.757 379.038 305.994 378.218 300.973C377.718 297.909 378.487 295.271 380.525 293.057C382.563 290.844 385.366 289.446 388.935 288.863C392.345 288.306 395.233 288.613 397.596 289.783C399.986 290.917 401.759 292.54 402.915 294.654L396.983 298.832C396.471 297.684 395.624 296.768 394.443 296.086C393.256 295.372 391.778 295.159 390.01 295.448C388.368 295.716 387.159 296.254 386.383 297.062C385.601 297.838 385.286 298.684 385.435 299.6C385.657 300.958 386.817 301.708 388.916 301.852L396.008 302.396C398.832 302.616 401.087 303.415 402.771 304.793C404.487 306.167 405.535 308.022 405.917 310.359C406.392 313.265 405.625 315.919 403.618 318.322C401.638 320.688 398.374 322.242 393.826 322.985C390.289 323.563 387.254 323.248 384.722 322.04C382.217 320.795 380.365 319.185 379.167 317.208L384.658 312.712C385.349 313.961 386.474 314.896 388.034 315.517C389.595 316.137 391.228 316.308 392.933 316.03ZM414.106 319.235L411.089 300.76L407.11 301.41L406.066 295.015L410.187 294.342L409.236 288.515L415.962 287.416L416.914 293.243L422.836 292.276L423.88 298.671L417.958 299.638L419.892 311.482L425.909 310.499L426.992 317.131L414.106 319.235ZM438.918 315.67C436.487 316.067 434.349 315.686 432.507 314.528C430.659 313.339 429.547 311.591 429.17 309.286C428.788 306.948 429.242 304.961 430.531 303.324C431.852 301.682 433.889 300.555 436.642 299.943L443.023 298.512L443 298.37C442.876 297.612 442.328 296.939 441.357 296.352C440.412 295.728 439.245 295.53 437.855 295.757C436.371 295.999 435.275 296.535 434.567 297.364C433.854 298.161 433.412 299.028 433.241 299.964L427.282 298.019C427.862 295.816 428.97 293.965 430.606 292.466C432.237 290.935 434.378 289.953 437.031 289.52C440.663 288.927 443.634 289.544 445.942 291.372C448.246 293.168 449.612 295.377 450.04 297.998L452.484 312.968L445.568 314.098L445.166 311.634C444.254 313.793 442.171 315.139 438.918 315.67ZM436.127 307.809C436.23 308.441 436.55 308.907 437.085 309.209C437.616 309.479 438.291 309.547 439.113 309.413C440.439 309.196 441.64 308.611 442.717 307.657C443.825 306.698 444.27 305.555 444.054 304.229L444.023 304.039L438.021 305.408C437.331 305.553 436.812 305.849 436.463 306.295C436.146 306.736 436.034 307.241 436.127 307.809ZM458.665 311.959L454.604 287.088L461.568 285.951L462.241 290.072L469.907 284.006L471.099 291.301L463.378 297.036L465.629 310.822L458.665 311.959ZM481.603 308.213L478.586 289.738L474.607 290.388L473.562 283.992L477.684 283.319L476.732 277.492L483.459 276.394L484.411 282.221L490.332 281.254L491.376 287.649L485.455 288.616L487.389 300.459L493.405 299.477L494.488 306.109L481.603 308.213ZM529.767 300.348L527.508 286.515L513.533 288.797L515.792 302.63L508.686 303.79L503.271 270.63L510.377 269.469L512.45 282.165L526.425 279.883L524.352 267.187L531.457 266.027L536.873 299.187L529.767 300.348ZM555.128 296.644C551.054 297.309 547.634 296.62 544.868 294.575C542.102 292.53 540.418 289.66 539.814 285.964C539.216 282.301 539.948 279.036 542.009 276.171C544.101 273.3 547.074 271.55 550.927 270.921C554.875 270.276 558.179 271.05 560.839 273.242C563.53 275.428 565.16 278.259 565.727 281.733L566.137 284.244L547.235 287.33C547.91 288.679 548.843 289.629 550.035 290.18C551.259 290.726 552.629 290.875 554.145 290.628C555.851 290.349 557.184 289.775 558.144 288.905C559.131 287.998 559.762 287.1 560.039 286.212L565.76 288.488C565.334 290.049 564.237 291.671 562.469 293.354C560.702 295.037 558.254 296.133 555.128 296.644ZM546.496 281.907L558.102 280.011C557.821 279.084 557.119 278.259 555.995 277.534C554.898 276.773 553.497 276.532 551.792 276.81C550.497 277.022 549.356 277.581 548.369 278.488C547.377 279.363 546.753 280.503 546.496 281.907ZM572.239 293.412L568.178 268.541L575.141 267.404L575.815 271.526L583.481 265.459L584.672 272.754L576.952 278.489L579.203 292.275L572.239 293.412ZM602.824 288.855C598.75 289.52 595.33 288.831 592.564 286.786C589.799 284.741 588.114 281.871 587.511 278.176C586.912 274.512 587.644 271.248 589.705 268.382C591.798 265.511 594.77 263.761 598.623 263.132C602.571 262.487 605.875 263.261 608.535 265.453C611.227 267.64 612.856 270.47 613.423 273.944L613.833 276.455L594.932 279.541C595.606 280.89 596.539 281.84 597.732 282.391C598.956 282.937 600.326 283.086 601.842 282.839C603.547 282.56 604.88 281.986 605.84 281.116C606.827 280.209 607.459 279.311 607.735 278.423L613.457 280.699C613.031 282.26 611.934 283.882 610.166 285.565C608.398 287.248 605.951 288.345 602.824 288.855ZM594.192 274.118L605.798 272.222C605.517 271.296 604.815 270.47 603.692 269.746C602.595 268.984 601.193 268.743 599.488 269.022C598.193 269.233 597.052 269.792 596.066 270.699C595.074 271.574 594.449 272.714 594.192 274.118Z" fill="#FFF4E1"/>
</g>
<defs>
<filter id="filter0_i_31_297" x="3.56519" y="17.0966" width="714.401" height="458.801" filterUnits="userSpaceOnUse" color-interpolation-filters="sRGB">
<feFlood flood-opacity="0" result="BackgroundImageFix"/>
<feBlend mode="normal" in="SourceGraphic" in2="BackgroundImageFix" result="shape"/>
<feColorMatrix in="SourceAlpha" type="matrix" values="0 0 0 0 0 0 0 0 0 0 0 0 0 0 0 0 0 0 127 0" result="hardAlpha"/>
<feOffset dy="8"/>
<feGaussianBlur stdDeviation="8.5"/>
<feComposite in2="hardAlpha" operator="arithmetic" k2="-1" k3="1"/>
<feColorMatrix type="matrix" values="0 0 0 0 1 0 0 0 0 1 0 0 0 0 1 0 0 0 0.56 0"/>
<feBlend mode="normal" in2="shape" result="effect1_innerShadow_31_297"/>
</filter>
<linearGradient id="paint0_linear_31_297" x1="174.428" y1="178.975" x2="174.428" y2="419.975" gradientUnits="userSpaceOnUse">
<stop stop-color="white"/>
<stop offset="1" stop-color="#FFAFB4"/>
</linearGradient>
<linearGradient id="paint1_linear_31_297" x1="206.635" y1="362.658" x2="177.365" y2="193.343" gradientUnits="userSpaceOnUse">
<stop stop-color="#FD3A84"/>
<stop offset="1" stop-color="#FFA68D"/>
</linearGradient>
<linearGradient id="paint2_linear_31_297" x1="199.265" y1="338.389" x2="174.283" y2="193.876" gradientUnits="userSpaceOnUse">
<stop stop-color="#FFC2CC"/>
<stop offset="1" stop-color="#FFF2F4"/>
</linearGradient>
<clipPath id="clip0_31_297">
<rect width="671.706" height="373" fill="white" transform="translate(0 120.257) rotate(-9.27464)"/>
</clipPath>
<clipPath id="clip1_31_297">
<rect width="171.827" height="171.827" fill="white" transform="translate(92.7072 207.978) rotate(-9.80804)"/>
</clipPath>
</defs>
</svg>
