
<svg width="266" height="169" viewBox="0 0 266 169" fill="none" xmlns="http://www.w3.org/2000/svg">
<g clip-path="url(#clip0_21_6)">
<path d="M221.854 142.835C220.885 143.302 219.909 143.735 218.897 144.099C218.624 144.196 216.956 144.684 217.694 144.515C217.402 144.587 217.032 144.682 216.91 144.7C216.305 144.842 215.701 144.984 215.077 145.102C214.721 145.167 212.808 145.417 213.985 145.314C215.163 145.211 213.248 145.385 212.863 145.413C212.324 145.465 211.775 145.505 211.228 145.524C210.724 145.548 210.223 145.551 209.72 145.575C209.45 145.552 209.154 145.569 208.915 145.561C207.713 145.508 206.494 145.41 205.293 145.259C204.658 145.191 203.952 145.178 203.342 144.993C204.762 145.422 203.342 144.993 202.716 144.86C200.292 144.36 197.931 143.693 195.574 142.907C195.324 142.811 194.634 142.572 194.415 142.49C193.874 142.269 193.334 142.049 192.794 141.829C191.549 141.302 190.321 140.723 189.108 140.113C187.988 139.548 186.873 138.939 185.781 138.312C185.456 138.119 185.12 137.913 184.773 137.717C184.773 137.717 184.581 137.595 184.429 137.499C184.286 137.416 184.106 137.285 184.096 137.272C183.773 137.058 183.45 136.843 183.139 136.618C173.224 129.817 165.832 119.987 159.515 109.899C152.546 98.781 146.791 86.965 140.172 75.651C134.983 66.805 129.001 58.034 120.34 52.241C110.973 45.9659 98.87 43.4347 88.4422 48.601C82.9294 51.32 79.0003 55.667 75.1432 60.327C73.5176 62.303 71.849 64.273 69.9577 66.008C69.8617 66.083 69.3051 66.559 69.1518 66.659C68.6147 67.06 68.0234 67.368 67.4768 67.757C67.3045 67.833 67.1202 67.919 66.9479 67.996C66.924 68.015 66.7542 68.07 66.5819 68.146C66.4361 68.182 66.3023 68.209 66.1685 68.236C66.1565 68.245 66.1135 68.24 66.1016 68.249C65.6673 68.238 65.5146 68.241 65.4906 68.26C65.264 68.242 65.0779 68.252 64.9681 68.26C64.4366 68.149 63.9058 67.941 63.4078 67.824C63.2816 67.787 63.2078 67.767 63.1434 67.758C63.0815 67.729 63.0506 67.714 62.9578 67.67C62.3677 67.411 61.756 67.149 61.1804 66.858C60.6881 66.601 60.1958 66.343 59.7274 66.066C59.3639 65.824 59.0028 65.561 58.6418 65.298C53.9274 61.775 50.8766 56.696 48.3565 51.454C45.4665 45.468 43.1509 39.2273 40.3543 33.1879C37.513 27.0666 34.4084 21.054 31.057 15.1957C27.9772 9.80739 24.696 4.55719 21.204 -0.566814C15.0263 -0.992614 8.87379 -1.63322 2.73895 -2.42432C6.12609 2.29428 9.33599 7.13219 12.3805 12.0801C19.6456 23.9217 25.5467 36.3443 30.9613 49.109C33.7169 55.59 36.8107 61.787 41.5833 67.039C45.5549 71.416 50.966 74.569 56.6332 76.097C63.5344 77.964 71.1264 77.38 77.4564 74.098C82.8601 71.288 86.6049 66.657 90.4424 62.071C91.2767 61.085 92.099 60.11 92.9831 59.163C93.444 58.666 93.927 58.17 94.429 57.699C94.638 57.496 94.856 57.306 95.065 57.103C95.149 57.037 95.212 56.969 95.271 56.922C95.295 56.903 95.355 56.856 95.463 56.772C95.991 56.358 96.556 55.993 97.122 55.628C97.254 55.525 97.347 55.471 97.407 55.424C97.443 55.396 97.486 55.402 97.555 55.367C97.888 55.223 98.252 55.094 98.606 54.953C98.861 54.909 99.234 54.793 99.404 54.738C99.459 54.734 99.514 54.729 99.557 54.735C99.955 54.774 100.382 54.751 100.738 54.785C100.771 54.778 100.78 54.79 100.802 54.793C100.811 54.805 100.811 54.805 100.845 54.798C101.362 54.939 101.881 55.059 102.398 55.2C102.451 55.218 102.546 55.24 102.653 55.254C102.684 55.269 102.715 55.283 102.746 55.298C103.772 55.743 104.785 56.197 105.758 56.722C105.932 56.82 106.514 57.144 106.768 57.296C107.011 57.457 107.698 57.913 107.819 57.994C108.795 58.672 109.733 59.4 110.635 60.156C112.498 61.719 114.249 63.41 115.867 65.204C115.952 65.313 116.405 65.816 116.493 65.904C116.846 66.329 117.198 66.755 117.539 67.19C118.335 68.205 119.118 69.23 119.844 70.28C121.457 72.585 122.926 75.004 124.361 77.429C131.329 89.113 137.248 101.385 144.438 112.934C151.109 123.622 159.083 134.343 169.505 141.644C179.212 148.452 190.521 152.834 202.285 154.091C209.231 154.831 216.534 154.395 223.344 152.492C223.28 152.114 223.203 151.744 223.139 151.366C222.924 150.227 222.938 149.183 223.113 148.246C222.882 146.321 222.694 144.401 222.496 142.469C222.24 142.611 221.914 142.788 221.787 142.848L221.854 142.835Z" fill="#FFEBCC"/>
<path d="M256 169C261.523 169 266 164.523 266 159C266 153.477 261.523 149 256 149C250.477 149 246 153.477 246 159C246 164.523 250.477 169 256 169Z" fill="#FFEFD8"/>
<path d="M228.63 46.502L225.35 60.199L235 70.604L220.716 71.78L213.606 84L208.041 71.042L194 68.175L204.85 58.985L203.293 45L215.559 52.287L228.63 46.502Z" fill="#FFCE37"/>
</g>
<defs>
<clipPath id="clip0_21_6">
<rect width="266" height="169" fill="white"/>
</clipPath>
</defs>
</svg>
