
<svg width="164" height="97" viewBox="0 0 164 97" fill="none" xmlns="http://www.w3.org/2000/svg">
<g clip-path="url(#clip0_22_10)">
<path d="M-104.903 30.4956C-89.8689 26.5813 -74.9842 22.1082 -60.2817 17.0552C-51.8206 14.1468 -43.4063 11.0233 -35.0865 7.72319C-31.004 6.10409 -26.9834 4.32949 -22.7481 3.15579C-20.8687 2.63479 -19.9307 2.43099 -17.7644 2.32629C-17.4847 2.32189 -17.1782 2.31159 -16.8985 2.30709C-16.6934 2.34699 -16.2028 2.40929 -16.1165 2.41879C-15.9976 2.44919 -15.754 2.53709 -15.5431 2.60389C-15.4184 2.66119 -15.2668 2.71279 -15.1421 2.77019C-15.1095 2.79119 -15.05 2.80649 -15.0174 2.82749C-14.9789 2.87549 -14.9195 2.89069 -14.881 2.93869C-14.8098 3.00769 -14.7061 3.09779 -14.5965 3.21469C-14.4099 3.42759 -14.2233 3.64049 -14.0367 3.85339C-13.9598 3.94919 -13.856 4.03929 -13.7522 4.12939C-13.7522 4.12939 -13.7849 4.10829 -13.8175 4.08729C-13.8886 4.01829 -13.9481 4.00299 -14.0134 3.96089C-13.9038 4.07779 -13.7615 4.21589 -13.667 4.39239C-13.5282 4.64379 -13.3626 4.88939 -13.2238 5.14079C-12.8959 5.74529 -12.5681 6.34989 -12.2939 6.96609C-12.0197 7.58219 -11.5376 9.02609 -11.9871 7.60329C-11.7314 8.39239 -11.4548 9.14889 -11.2259 9.94379C-10.328 13.043 -9.75165 16.2121 -9.39556 19.4009C-9.31238 20.1712 -9.23505 20.9146 -9.15186 21.685C-9.14018 21.7387 -9.13433 21.7656 -9.12265 21.8194C-9.10614 22.1537 -9.08963 22.488 -9.04633 22.8164C-8.94867 24.4283 -8.88366 26.0191 -8.83961 27.6426C-8.39976 44.7788 -7.18959 61.9729 3.12965 76.3993C13.085 90.314 31.3863 99.627 48.4315 95.022C60.7589 91.696 68.6688 80.8264 74.8636 70.3296C81.226 59.571 86.5929 46.2975 97.2171 39.6529C98.5264 38.8335 99.1136 38.5651 101.041 38.0056C101.41 37.8972 101.753 37.7946 102.128 37.7131C102.181 37.7014 102.235 37.6898 102.348 37.6934C102.681 37.6773 103.036 37.6284 103.369 37.6123C103.503 37.5832 104.068 37.6012 104.401 37.5851C104.401 37.5851 104.428 37.5793 104.455 37.5734C104.865 37.6532 105.296 37.7003 105.733 37.7743L105.787 37.7627C105.939 37.8142 106.063 37.8716 106.15 37.881C106.301 37.9325 106.453 37.9841 106.604 38.0356C106.898 38.2252 107.581 38.5273 108.086 38.7836C108.118 38.8047 108.124 38.8316 108.184 38.8468C108.451 39.0422 108.718 39.2376 108.99 39.4599C109.601 39.9466 110.197 40.4929 110.814 41.0065C110.885 41.0755 110.918 41.0966 110.989 41.1656C111.137 41.3305 111.285 41.4954 111.318 41.5165C111.969 42.1914 112.6 42.899 113.21 43.6394C114.303 44.9224 115.267 46.2614 116.265 47.6215C116.265 47.6215 116.265 47.6215 116.27 47.6484C116.454 47.9746 116.684 48.2624 116.862 48.5617C117.403 49.3733 117.896 50.2234 118.411 51.0408C122.847 58.4112 126.495 66.2907 130.404 73.9447C134.69 82.305 138.949 90.671 143.241 99.058C145.14 102.757 147.011 106.461 148.909 110.159C153.694 108.416 158.464 106.732 163.273 105.096C155.651 90.168 148.035 75.2664 140.413 60.3383C133.131 46.0685 124.232 31.3334 108.637 25.1768C100.442 21.9457 91.5949 22.432 83.8815 26.5858C77.5009 30.0277 72.7497 35.9311 68.7956 41.8866C62.1507 51.8618 57.4843 63.3219 49.6584 72.5119C49.4733 72.6929 48.9562 73.284 48.7978 73.4592C48.3168 73.9579 47.8568 74.4239 47.3699 74.8957C46.3217 75.8837 45.2291 76.7968 44.0713 77.6679C43.5401 78.0648 43.0031 78.4349 42.4334 78.784C42.2365 78.9112 41.5655 79.3104 41.2673 79.4878C40.9364 79.6442 40.2211 79.9686 40.0184 80.0689C39.2972 80.3664 38.5702 80.637 37.8373 80.8807C37.2058 81.0743 36.4438 81.1835 35.8239 81.4308C35.5024 81.5007 35.1749 81.5437 34.8416 81.5598C33.9933 81.6597 33.1426 81.6192 32.3211 81.7133C32.3211 81.7133 32.3211 81.7133 32.2943 81.7191C31.8363 81.6778 31.4051 81.6308 30.9471 81.5895C30.5963 81.5249 30.2454 81.4604 29.8737 81.4285C29.4098 81.3604 29.1838 81.3532 29.1243 81.3379C28.6103 81.1681 28.0788 80.9175 27.7163 80.7992C27.4995 80.7055 27.2885 80.6387 27.0449 80.5509C27.0449 80.5509 27.0507 80.5778 27.0566 80.6047C27.0566 80.6047 27.0449 80.5509 26.9913 80.5625C26.8724 80.5321 26.7745 80.4689 26.6556 80.4384C25.708 80.0812 26.166 80.1224 26.6264 80.3039C25.9258 79.9212 24.6401 79.2996 24.4827 79.2211C24.3521 79.1369 24.2601 79.1006 24.1948 79.0584C24.0969 78.9952 23.9931 78.9052 23.8893 78.8151C23.1863 78.2921 22.5101 77.7633 21.8549 77.2017C21.5494 76.9584 21.1611 76.5922 20.9804 76.4062C20.3344 75.7582 19.7094 75.0775 19.1112 74.3909C18.5456 73.7254 18.0278 73.0214 17.489 72.3501C18.4068 73.474 17.4004 72.2004 17.0959 71.7035C15.9668 69.8652 15.0136 67.9324 14.1408 65.9822C14.1467 66.0091 13.9786 65.6232 13.8725 65.3929C13.7931 65.1567 13.6192 64.744 13.6309 64.7978C13.2924 63.8858 13.0076 62.9623 12.7285 62.0656C12.1296 60.084 11.6378 58.0791 11.1938 56.0357C10.4704 52.448 9.91325 48.2048 9.68531 44.96C8.77902 31.3603 10.1912 16.8062 3.3715 4.40689C-0.482828 -2.6113 -6.93152 -8.13661 -14.5648 -10.5889C-24.4918 -13.7816 -34.0321 -11.061 -43.3294 -7.35149C-59.9574 -0.69761 -76.8713 5.28639 -94.0408 10.4812C-99.3876 12.0935 -104.731 13.5924 -110.107 15.0703C-108.34 20.2331 -106.572 25.3959 -104.853 30.5973L-104.903 30.4956Z" fill="#FFEBCC"/>
</g>
<defs>
<clipPath id="clip0_22_10">
<rect width="164" height="97" fill="white"/>
</clipPath>
</defs>
</svg>
