<svg width="229" height="226" viewBox="0 0 229 226" fill="none" xmlns="http://www.w3.org/2000/svg">
<path d="M114.5 0L119.766 89.6629L161.328 9.87728L129.388 93.914L200.059 37.8013L136.435 101.681L223.996 78.9436L139.69 111.621L229 126.191L138.589 122.015L214.206 171.372L133.323 131.067L182.172 206.677L124.802 137.21L138.437 226L114.5 139.383L90.563 226L104.198 137.21L46.8279 206.677L95.6771 131.067L14.7939 171.372L90.4109 122.015L0 126.191L89.31 111.621L5.0042 78.9436L92.5647 101.681L28.9412 37.8013L99.6121 93.914L67.6721 9.87728L109.234 89.6629L114.5 0Z" fill="#FFCE37"/>
</svg>
