<svg width="164" height="205" viewBox="0 0 164 205" fill="none" xmlns="http://www.w3.org/2000/svg">
<path d="M163.996 174.176C163.944 172.168 163.274 169.781 162.242 168.081C160.611 165.361 157.954 162.605 154.822 164.713C139.669 174.911 122.383 182.08 104.556 185.975C95.6686 187.928 86.4054 189.335 77.2795 188.811C72.7728 188.554 68.4067 187.81 64.3458 185.989C63.3046 185.528 62.2844 185.001 61.3136 184.425C61.1557 184.328 60.5417 183.912 60.5329 183.926C60.3263 183.779 60.1198 183.633 59.9132 183.486C59.1389 182.912 58.4142 182.29 57.7071 181.638C57.5811 181.522 57.0065 180.912 56.9004 180.827C56.6661 180.565 56.4374 180.326 56.2119 180.049C55.7864 179.551 55.2692 178.977 54.859 178.389C54.8025 178.256 54.7461 178.122 54.672 178.018C54.3822 177.524 54.0836 177.044 53.8026 176.536C53.6124 176.202 53.4453 175.862 53.255 175.528C53.1643 175.354 53.0879 175.188 52.9972 175.014C52.601 174.178 52.6487 174.326 53.1809 175.423C52.5766 174.894 52.2785 173.19 52.0115 172.434C51.8398 171.973 51.7057 171.515 51.5428 171.04C51.0574 169.576 51.5663 171.291 51.6515 171.442C51.2113 170.678 51.1399 169.41 50.9578 168.547C50.7478 167.569 50.5842 166.58 50.4438 165.585C50.4059 165.324 50.285 164.104 50.3053 164.393C50.2739 164.058 50.237 163.7 50.2056 163.364C50.0494 161.332 50.0145 159.296 50.0635 157.252C50.0761 156.845 50.0888 156.438 50.1015 156.031C50.1057 155.895 50.1067 155.797 50.1076 155.699C50.1141 155.624 50.1239 155.511 50.1337 155.398C50.2314 154.273 50.3347 153.171 50.4754 152.072C51.0047 147.893 52.0506 143.162 53.1665 139.54C53.8562 137.257 54.6409 135.012 55.4917 132.789C56.1886 132.426 56.8998 132.072 57.5823 131.701C67.2023 126.622 76.4316 120.73 85.1359 114.18C93.59 107.812 101.542 100.78 108.882 93.1362C112.714 89.1468 116.386 84.9998 119.874 80.7008C122.992 76.8456 126.413 72.8809 128.681 68.4451C131.532 62.8659 131.312 56.1722 128.257 50.6826C125.299 45.3903 120.449 42.4727 114.41 43.5861C109.73 44.4478 105.755 47.3816 102.15 50.325C97.7011 53.9354 93.3545 57.6683 89.1395 61.5411C72.9439 76.4327 58.3737 93.7641 49.1204 113.865C48.3647 115.515 47.6609 117.177 46.9626 118.862C43.8454 120.366 40.6861 121.746 37.468 122.932C33.5166 124.378 29.2173 125.651 25.131 126.126C23.2136 126.352 21.243 126.407 19.3174 126.292C18.3243 126.235 17.32 126.133 16.3278 125.978C15.8433 125.898 15.3445 125.809 14.8688 125.715C14.8975 125.732 13.7738 125.438 13.7881 125.447C12.0573 124.918 10.3172 124.146 8.7843 123.166C8.67826 123.081 8.24525 122.756 8.11049 122.653C7.778 122.39 7.4455 122.127 7.12181 121.849C6.84119 121.598 6.57266 121.295 6.27443 121.072C6.17164 120.95 6.06 120.842 5.95721 120.719C5.75163 120.475 5.54604 120.23 5.34927 119.971C5.33492 119.962 5.32057 119.953 5.31502 119.93C5.33167 120 5.35159 120.032 5.36824 120.101C5.33724 120.023 5.29187 119.936 5.26086 119.857C5.09834 119.639 5.01644 119.451 4.98869 119.335C4.78962 119.015 4.58176 118.71 4.40815 118.445C4.4359 118.561 4.46688 118.639 4.50018 118.778C4.46133 118.616 4.39052 118.474 4.32851 118.317C4.32851 118.317 4.29977 118.3 4.29423 118.276C4.17478 118.085 4.11606 117.891 4.08276 117.752C4.0684 117.743 4.07164 117.705 4.04293 117.688C3.91335 117.351 3.79262 117.001 3.67185 116.65C3.50861 115.918 3.33652 115.2 3.22516 114.479C3.18402 114.257 3.09801 112.722 3.1429 114.034C3.18453 115.383 3.12263 113.745 3.11575 113.563C3.05169 112.733 3.01078 111.898 3.0074 111.066C2.99919 110.726 3.00535 110.393 3.0115 110.061C3.00788 109.842 3.0629 108.947 3.08016 108.661C3.39875 105.341 3.97115 102.057 4.82613 98.8285C4.81732 98.8428 4.96669 98.3419 5.03908 98.0307C5.13463 97.714 5.29276 97.1987 5.27515 97.2274C5.54647 96.3667 5.84098 95.5004 6.13546 94.6342C6.75966 92.8442 7.47324 91.0697 8.20674 89.3271C9.87401 85.4512 11.8747 81.7405 13.9273 78.0418C24.3049 59.3621 36.9661 41.9852 51.4337 26.2701C54.9988 22.3935 58.6811 18.648 62.4551 14.9786C66.8384 10.7349 59.6565 -3.90575 54.5966 0.989404C37.6375 17.4471 22.876 36.0241 10.5111 56.1708C1.0437 71.5965 -8.40449 88.8908 -7.46765 107.62C-6.97257 117.505 -3.38396 127.116 3.81566 134.063C10.9523 140.952 20.6219 142.876 30.1812 141.632C33.8747 141.153 37.4683 140.257 40.9634 139.103C38.7988 150.97 39.04 163.169 42.8766 174.887C46.1325 184.847 52.4234 193.725 61.4372 199.198C70.3648 204.618 81.3853 205.179 91.5276 204.272C111.76 202.447 131.58 196.496 149.412 186.797C153.951 184.328 158.34 181.589 162.62 178.704C163.769 177.928 163.965 175.322 163.95 174.187L163.996 174.176ZM106.007 67.6462C109.351 64.8388 112.415 61.939 116.268 60.2342C116.654 60.0562 117.037 59.9157 117.428 59.7609C117.112 60.1793 116.802 60.6209 116.486 61.0393C113.526 64.9914 110.412 68.8091 107.149 72.5156C100.638 79.9372 93.5879 86.8508 86.0408 93.2222C81.0803 97.4079 75.9231 101.335 70.5778 104.988C74.6171 99.3083 79.0407 93.9041 83.7593 88.76C90.6824 81.2155 98.1778 74.2198 106.007 67.6462Z" fill="#169AB2"/>
</svg>
