<svg width="313" height="207" viewBox="0 0 313 207" fill="none" xmlns="http://www.w3.org/2000/svg">
<path d="M293.648 0.0391028C284.656 17.1917 276.305 34.6748 268.641 52.476C264.232 62.7207 260.059 73.1026 256.129 83.5453C254.201 88.6692 252.468 93.8665 250 98.7581C248.905 100.929 248.307 101.965 246.587 104.052C246.357 104.313 246.109 104.605 245.879 104.867C245.67 105.022 245.201 105.423 245.12 105.495C244.993 105.579 244.707 105.73 244.469 105.868C244.311 105.935 244.137 106.032 243.979 106.099C243.933 106.111 243.869 106.153 243.822 106.166C243.745 106.161 243.682 106.203 243.605 106.199C243.482 106.206 243.312 106.227 243.112 106.23C242.759 106.223 242.406 106.217 242.053 106.211C241.9 106.201 241.73 106.222 241.56 106.242C241.56 106.242 241.607 106.229 241.654 106.217C241.777 106.209 241.841 106.167 241.935 106.142C241.735 106.145 241.488 106.161 241.246 106.1C240.898 106.017 240.532 105.964 240.184 105.882C239.351 105.677 238.519 105.473 237.72 105.209C236.922 104.946 235.186 104.18 236.875 104.958C235.933 104.532 235.003 104.154 234.078 103.698C230.465 101.929 227.058 99.8036 223.818 97.4589C223.037 96.8899 222.287 96.338 221.506 95.769C221.447 95.7347 221.417 95.7175 221.358 95.6832C221.035 95.4182 220.713 95.1532 220.374 94.9178C218.805 93.6566 217.282 92.383 215.748 91.0626C199.568 77.1027 182.69 63.8049 160.729 61.2318C139.545 58.7523 115.61 67.8301 105.569 87.4168C98.3031 101.579 101.701 117.989 106.192 132.505C110.785 147.394 118.532 163.473 115.756 178.846C115.415 180.741 115.17 181.508 114.071 183.755C113.861 184.186 113.668 184.589 113.429 185.003C113.395 185.062 113.361 185.121 113.263 185.223C112.998 185.544 112.746 185.911 112.482 186.232C112.396 186.381 111.906 186.887 111.641 187.208C111.641 187.208 111.624 187.238 111.607 187.267C111.189 187.579 110.785 187.937 110.35 188.278L110.316 188.338C110.141 188.434 109.984 188.501 109.903 188.573C109.728 188.669 109.553 188.766 109.379 188.863C108.958 188.975 108.106 189.352 107.447 189.602C107.4 189.615 107.37 189.598 107.306 189.64C106.902 189.722 106.498 189.805 106.064 189.87C105.103 190.026 104.1 190.118 103.109 190.256C102.985 190.264 102.939 190.276 102.815 190.284C102.539 190.282 102.263 190.281 102.216 190.293C101.047 190.329 99.865 190.318 98.6706 190.26C96.5708 190.192 94.5268 189.96 92.436 189.739C92.436 189.739 92.436 189.739 92.4063 189.722C91.9517 189.618 91.4927 189.59 91.0679 189.502C89.8654 189.321 88.6674 189.064 87.482 188.853C76.9629 186.767 66.6344 183.528 56.296 180.717C44.9892 177.663 33.6995 174.58 22.3629 171.508C17.3594 170.159 12.3729 168.781 7.36931 167.431C4.9666 173.308 2.52158 179.121 5.55085e-05 184.929C20.1628 190.411 40.2959 195.877 60.4586 201.359C79.7294 206.603 100.785 210.745 119.538 201.518C129.39 196.666 136.358 188.095 138.992 177.497C141.165 168.724 139.702 159.391 137.522 150.751C133.889 136.257 127.227 122.345 125.309 107.42C125.297 107.097 125.185 106.125 125.156 105.832C125.1 104.97 125.055 104.155 125.028 103.31C124.995 101.515 125.069 99.7411 125.236 97.9426C125.315 97.1197 125.424 96.314 125.579 95.4958C125.627 95.2075 125.821 94.2537 125.907 93.8298C126.04 93.3935 126.341 92.4615 126.418 92.1904C126.748 91.2756 127.108 90.378 127.498 89.4975C127.848 88.7526 128.386 87.9579 128.678 87.1787C128.883 86.8234 129.118 86.4853 129.382 86.1643C130.001 85.2979 130.752 84.5468 131.354 83.71C131.354 83.71 131.354 83.71 131.371 83.6804C131.793 83.2925 132.198 82.9341 132.62 82.5461C132.974 82.2766 133.327 82.007 133.668 81.6907C134.12 81.3199 134.316 81.1173 134.38 81.0753C134.968 80.7434 135.644 80.463 136.058 80.2278C136.326 80.1063 136.564 79.9676 136.849 79.8165C136.849 79.8165 136.82 79.7994 136.79 79.7822C136.79 79.7822 136.849 79.8165 136.884 79.7573C137.011 79.6732 137.152 79.6358 137.28 79.5517C138.404 78.9768 137.982 79.3648 137.428 79.6374C138.369 79.3119 140.02 78.6468 140.224 78.5673C140.411 78.5175 140.522 78.463 140.616 78.4381C140.756 78.4007 140.926 78.3804 141.096 78.3602C142.168 78.1501 143.223 77.9695 144.29 77.8357C144.771 77.7579 145.434 77.7066 145.757 77.6957C146.897 77.643 148.049 77.637 149.184 77.6606C150.272 77.6967 151.356 77.8092 152.427 77.8749C150.62 77.7794 152.639 77.9185 153.353 78.0543C155.995 78.5536 158.578 79.2944 161.109 80.1241C161.079 80.107 161.576 80.2754 161.878 80.3705C162.162 80.4953 162.689 80.6808 162.629 80.6465C163.754 81.0987 164.845 81.6102 165.906 82.1044C168.237 83.213 170.499 84.4401 172.757 85.7435C176.673 88.0836 181.055 91.1268 184.24 93.6367C197.547 104.202 209.792 117.706 226.949 121.808C236.655 124.136 247.159 122.818 255.821 117.831C267.089 111.348 272.577 100.265 276.948 88.5775C284.749 67.6578 293.407 47.0359 303.008 26.8397C306.003 20.5549 309.099 14.3682 312.243 8.16918C305.998 5.47161 299.753 2.77405 293.512 0.000107832L293.648 0.0391028Z" fill="#E42442"/>
</svg>
