<svg width="170" height="34" viewBox="0 0 170 34" fill="none" xmlns="http://www.w3.org/2000/svg">
<path d="M16.0489 2.92705C16.3483 2.00574 17.6517 2.00574 17.9511 2.92705L20.5922 11.0557C20.7261 11.4678 21.1101 11.7467 21.5433 11.7467L30.0903 11.7467C31.059 11.7467 31.4618 12.9863 30.6781 13.5557L23.7634 18.5795C23.4129 18.8342 23.2663 19.2855 23.4001 19.6976L26.0413 27.8262C26.3406 28.7475 25.2862 29.5137 24.5025 28.9443L17.5878 23.9205C17.2373 23.6658 16.7627 23.6658 16.4122 23.9205L9.49755 28.9443C8.71383 29.5137 7.65936 28.7475 7.95871 27.8262L10.5999 19.6976C10.7337 19.2855 10.5871 18.8342 10.2366 18.5795L3.32194 13.5557C2.53822 12.9863 2.941 11.7467 3.90972 11.7467L12.4567 11.7467C12.8899 11.7467 13.2739 11.4678 13.4078 11.0557L16.0489 2.92705Z" fill="#FFBF5B"/>
<path d="M50.0489 2.92705C50.3483 2.00574 51.6517 2.00574 51.9511 2.92705L54.5922 11.0557C54.7261 11.4678 55.1101 11.7467 55.5433 11.7467L64.0903 11.7467C65.059 11.7467 65.4618 12.9863 64.6781 13.5557L57.7634 18.5795C57.4129 18.8342 57.2663 19.2855 57.4001 19.6976L60.0413 27.8262C60.3406 28.7475 59.2862 29.5137 58.5025 28.9443L51.5878 23.9205C51.2373 23.6658 50.7627 23.6658 50.4122 23.9205L43.4975 28.9443C42.7138 29.5137 41.6594 28.7475 41.9587 27.8262L44.5999 19.6976C44.7337 19.2855 44.5871 18.8342 44.2366 18.5795L37.3219 13.5557C36.5382 12.9863 36.941 11.7467 37.9097 11.7467L46.4567 11.7467C46.8899 11.7467 47.2739 11.4678 47.4078 11.0557L50.0489 2.92705Z" fill="#FFBF5B"/>
<path d="M84.0489 2.92705C84.3483 2.00574 85.6517 2.00574 85.9511 2.92705L88.5922 11.0557C88.7261 11.4678 89.1101 11.7467 89.5433 11.7467L98.0903 11.7467C99.059 11.7467 99.4618 12.9863 98.6781 13.5557L91.7634 18.5795C91.4129 18.8342 91.2663 19.2855 91.4001 19.6976L94.0413 27.8262C94.3406 28.7475 93.2862 29.5137 92.5025 28.9443L85.5878 23.9205C85.2373 23.6658 84.7627 23.6658 84.4122 23.9205L77.4975 28.9443C76.7138 29.5137 75.6594 28.7475 75.9587 27.8262L78.5999 19.6976C78.7337 19.2855 78.5871 18.8342 78.2366 18.5795L71.3219 13.5557C70.5382 12.9863 70.941 11.7467 71.9097 11.7467L80.4567 11.7467C80.8899 11.7467 81.2739 11.4678 81.4078 11.0557L84.0489 2.92705Z" fill="#FFBF5B"/>
<path d="M118.049 2.92705C118.348 2.00574 119.652 2.00574 119.951 2.92705L122.592 11.0557C122.726 11.4678 123.11 11.7467 123.543 11.7467L132.09 11.7467C133.059 11.7467 133.462 12.9863 132.678 13.5557L125.763 18.5795C125.413 18.8342 125.266 19.2855 125.4 19.6976L128.041 27.8262C128.341 28.7475 127.286 29.5137 126.502 28.9443L119.588 23.9205C119.237 23.6658 118.763 23.6658 118.412 23.9205L111.498 28.9443C110.714 29.5137 109.659 28.7475 109.959 27.8262L112.6 19.6976C112.734 19.2855 112.587 18.8342 112.237 18.5795L105.322 13.5557C104.538 12.9863 104.941 11.7467 105.91 11.7467L114.457 11.7467C114.89 11.7467 115.274 11.4678 115.408 11.0557L118.049 2.92705Z" fill="#FFBF5B"/>
<path d="M152.049 2.92705C152.348 2.00574 153.652 2.00574 153.951 2.92705L156.592 11.0557C156.726 11.4678 157.11 11.7467 157.543 11.7467L166.09 11.7467C167.059 11.7467 167.462 12.9863 166.678 13.5557L159.763 18.5795C159.413 18.8342 159.266 19.2855 159.4 19.6976L162.041 27.8262C162.341 28.7475 161.286 29.5137 160.502 28.9443L153.588 23.9205C153.237 23.6658 152.763 23.6658 152.412 23.9205L145.498 28.9443C144.714 29.5137 143.659 28.7475 143.959 27.8262L146.6 19.6976C146.734 19.2855 146.587 18.8342 146.237 18.5795L139.322 13.5557C138.538 12.9863 138.941 11.7467 139.91 11.7467L148.457 11.7467C148.89 11.7467 149.274 11.4678 149.408 11.0557L152.049 2.92705Z" fill="#FFBF5B"/>
</svg>
