<svg width="186" height="124" viewBox="0 0 186 124" fill="none" xmlns="http://www.w3.org/2000/svg">
<path d="M174.59 0.0232577C169.243 10.2214 164.278 20.616 159.722 31.1998C157.1 37.2908 154.619 43.4634 152.283 49.6722C151.136 52.7187 150.106 55.8087 148.638 58.7171C147.988 60.0077 147.632 60.6238 146.609 61.8643C146.473 62.02 146.325 62.1932 146.188 62.3489C146.064 62.4415 145.786 62.6796 145.737 62.7222C145.661 62.7722 145.492 62.8621 145.35 62.9445C145.256 62.9843 145.153 63.0418 145.059 63.0816C145.031 63.089 144.993 63.114 144.965 63.1214C144.92 63.1186 144.882 63.1436 144.836 63.1409C144.763 63.1455 144.662 63.1575 144.543 63.1593C144.333 63.1556 144.124 63.1518 143.914 63.1481C143.823 63.1425 143.722 63.1545 143.621 63.1665C143.621 63.1665 143.648 63.1591 143.676 63.1517C143.75 63.1471 143.788 63.1221 143.843 63.1073C143.724 63.1091 143.578 63.1183 143.434 63.0822C143.227 63.033 143.009 63.0015 142.802 62.9523C142.307 62.8308 141.812 62.7093 141.338 62.5526C140.863 62.3959 139.831 61.9407 140.835 62.4033C140.275 62.1502 139.722 61.9249 139.172 61.6543C137.024 60.6021 134.998 59.3387 133.072 57.9446C132.608 57.6063 132.161 57.2782 131.697 56.9399C131.662 56.9195 131.644 56.9093 131.609 56.8889C131.417 56.7313 131.226 56.5737 131.024 56.4338C130.091 55.6839 129.186 54.9267 128.274 54.1417C118.654 45.8417 108.619 37.9355 95.5619 36.4056C82.967 34.9314 68.7362 40.3287 62.7663 51.9741C58.4465 60.3942 60.4666 70.151 63.1371 78.7812C65.8675 87.6338 70.4737 97.1938 68.8233 106.334C68.6202 107.46 68.4747 107.916 67.8211 109.252C67.6965 109.509 67.582 109.748 67.4397 109.994C67.4194 110.03 67.3991 110.065 67.3407 110.125C67.1835 110.316 67.0337 110.534 66.8764 110.725C66.8256 110.813 66.534 111.114 66.3767 111.305C66.3767 111.305 66.3666 111.323 66.3564 111.34C66.1081 111.526 65.8674 111.739 65.609 111.942L65.5887 111.977C65.4848 112.034 65.3912 112.074 65.3431 112.117C65.2393 112.174 65.1354 112.232 65.0316 112.289C64.7812 112.356 64.2751 112.58 63.8829 112.729C63.855 112.736 63.8374 112.726 63.7994 112.751C63.5591 112.8 63.3189 112.849 63.0609 112.888C62.4895 112.981 61.8928 113.035 61.3037 113.118C61.2304 113.122 61.2025 113.13 61.1292 113.134C60.965 113.133 60.8007 113.132 60.7728 113.14C60.0777 113.161 59.3751 113.154 58.665 113.12C57.4166 113.08 56.2013 112.941 54.9582 112.81C54.9582 112.81 54.9582 112.81 54.9405 112.8C54.6703 112.738 54.3974 112.721 54.1448 112.669C53.4299 112.562 52.7176 112.409 52.0128 112.283C45.7586 111.043 39.6177 109.117 33.471 107.446C26.7485 105.63 20.0361 103.797 13.296 101.971C10.3211 101.169 7.35634 100.349 4.38145 99.547C2.95291 103.041 1.49921 106.497 2.71317e-05 109.95C11.9879 113.21 23.9581 116.459 35.9459 119.719C47.4034 122.837 59.922 125.3 71.0721 119.814C76.9294 116.928 81.0722 111.833 82.6382 105.531C83.9305 100.316 83.0602 94.7669 81.7641 89.6294C79.6042 81.0123 75.6436 72.7405 74.5029 63.867C74.4959 63.6752 74.4295 63.0969 74.4123 62.9227C74.3785 62.4103 74.3521 61.9257 74.336 61.4234C74.3165 60.356 74.3601 59.3015 74.4594 58.2322C74.5064 57.7429 74.5711 57.2639 74.6635 56.7774C74.6919 56.606 74.8073 56.0389 74.8586 55.7869C74.9378 55.5275 75.1164 54.9734 75.1624 54.8122C75.3586 54.2683 75.5726 53.7346 75.8042 53.2111C76.0128 52.7683 76.3327 52.2957 76.5059 51.8325C76.6279 51.6212 76.7675 51.4202 76.9248 51.2293C77.2929 50.7142 77.7391 50.2677 78.0969 49.7702C78.0969 49.7702 78.0969 49.7702 78.1071 49.7526C78.358 49.5219 78.5988 49.3088 78.8497 49.0781C79.06 48.9179 79.2702 48.7576 79.473 48.5696C79.7416 48.3491 79.8582 48.2287 79.8962 48.2036C80.2456 48.0064 80.648 47.8396 80.8936 47.6998C81.053 47.6275 81.1948 47.5451 81.3644 47.4553C81.3644 47.4553 81.3467 47.4451 81.3291 47.4349C81.3291 47.4349 81.3644 47.4552 81.3847 47.42C81.4607 47.37 81.5442 47.3478 81.6202 47.2978C82.2884 46.956 82.0375 47.1867 81.7085 47.3488C82.2676 47.1552 83.2495 46.7598 83.3709 46.7125C83.4822 46.6829 83.548 46.6505 83.6037 46.6357C83.6872 46.6135 83.7883 46.6014 83.8894 46.5894C84.5267 46.4645 85.1539 46.3571 85.7885 46.2775C86.0742 46.2313 86.4686 46.2008 86.6607 46.1943C87.3382 46.163 88.0231 46.1594 88.6979 46.1735C89.3449 46.1949 89.9892 46.2618 90.626 46.3008C89.552 46.2441 90.7522 46.3268 91.1766 46.4075C92.7478 46.7044 94.2831 47.1448 95.788 47.6381C95.7703 47.6279 96.0657 47.7281 96.245 47.7846C96.4141 47.8588 96.7272 47.9691 96.6918 47.9487C97.3608 48.2176 98.0094 48.5217 98.6404 48.8156C100.026 49.4747 101.371 50.2042 102.713 50.9792C105.042 52.3705 107.647 54.1798 109.541 55.6721C117.453 61.9535 124.732 69.9824 134.933 72.4216C140.704 73.8053 146.95 73.0218 152.099 70.0568C158.799 66.2026 162.062 59.6132 164.661 52.6641C169.299 40.2262 174.446 27.9654 180.155 15.9577C181.935 12.221 183.776 8.54271 185.645 4.85703C181.932 3.25318 178.219 1.64933 174.509 7.48429e-05L174.59 0.0232577Z" fill="#FFE594"/>
</svg>
