
<svg width="1842" height="80" viewBox="0 0 1842 80" fill="none" xmlns="http://www.w3.org/2000/svg">
<g clip-path="url(#clip0_28_37)">
<path fill-rule="evenodd" clip-rule="evenodd" d="M46.6851 2022.65C23.7056 2034.93 -4.06068 2018.24 -3.9999 1992.19L0.477181 73.016C0.536451 47.6103 14.5521 24.2923 36.9598 12.3194L44.7767 8.14271C65.0955 -2.71396 89.4921 -2.71397 109.811 8.14266L121.497 14.3869C141.816 25.2435 166.213 25.2435 186.532 14.3869L198.218 8.14273C218.537 -2.71394 242.933 -2.71395 263.252 8.1427L274.938 14.3869C295.257 25.2435 319.654 25.2435 339.973 14.3868L351.659 8.14274C371.978 -2.71394 396.374 -2.71394 416.693 8.14273L428.379 14.3867C448.698 25.2434 473.095 25.2434 493.414 14.3865L505.098 8.14319C525.417 -2.71375 549.814 -2.71381 570.133 8.14304L581.818 14.3869C602.137 25.2437 626.534 25.2437 646.853 14.3869L658.539 8.14289C678.858 -2.71388 703.255 -2.71386 723.574 8.1429L735.259 14.3869C755.578 25.2437 779.975 25.2437 800.294 14.3869L811.98 8.14294C832.299 -2.71385 856.695 -2.71386 877.014 8.14291L888.701 14.3873C909.019 25.2438 933.416 25.244 953.735 14.3878L965.424 8.14207C985.743 -2.71421 1010.14 -2.71401 1030.46 8.14258L1042.14 14.3869C1062.46 25.2437 1086.86 25.2437 1107.18 14.3869L1118.86 8.14295C1139.18 -2.71384 1163.58 -2.71385 1183.9 8.14294L1195.58 14.3869C1215.9 25.2437 1240.3 25.2437 1260.62 14.3869L1272.31 8.14288C1292.62 -2.71388 1317.02 -2.71386 1337.34 8.14292L1349.03 14.3869C1369.34 25.2437 1393.74 25.2437 1414.06 14.387L1425.75 8.14298C1446.07 -2.71369 1470.46 -2.71369 1490.78 8.14299L1502.47 14.3871C1522.79 25.2438 1547.18 25.2438 1567.5 14.3871L1579.19 8.14297C1599.51 -2.71369 1623.9 -2.7137 1644.22 8.14296L1655.91 14.3871C1676.23 25.2438 1700.62 25.2438 1720.94 14.3871L1732.63 8.14299C1752.95 -2.7137 1777.34 -2.71369 1797.66 8.14297L1805.29 12.2165C1827.8 24.2438 1841.83 47.7138 1841.77 73.2351L1837.29 1992.29C1837.23 2018.37 1809.43 2034.99 1786.43 2022.7C1771.45 2014.7 1752.88 2018.76 1742.61 2032.28L1710.03 2075.17C1694.87 2095.12 1667.46 2101.11 1645.36 2089.3C1623.25 2077.49 1595.84 2083.48 1580.68 2103.44L1556.59 2135.16C1541.43 2155.11 1514.02 2161.1 1491.91 2149.29C1469.81 2137.48 1442.4 2143.47 1427.24 2163.43L1403.14 2195.15C1387.98 2215.1 1360.58 2221.09 1338.47 2209.28C1316.37 2197.47 1288.96 2203.46 1273.8 2223.42L1255.74 2247.19C1237.1 2271.72 1203.41 2279.09 1176.23 2264.57C1157.76 2254.7 1135.58 2254.7 1117.11 2264.57L1102.47 2272.39C1082.15 2283.25 1057.75 2283.25 1037.43 2272.39L1025.75 2266.15C1005.43 2255.29 981.033 2255.29 960.714 2266.15L949.028 2272.39C928.709 2283.25 904.313 2283.25 883.994 2272.39L872.308 2266.15C851.989 2255.29 827.592 2255.29 807.273 2266.15L795.587 2272.39C775.269 2283.25 750.872 2283.25 730.553 2272.39L715.91 2264.57C697.439 2254.7 675.26 2254.7 656.789 2264.57C629.616 2279.09 595.921 2271.72 577.283 2247.19L559.22 2223.42C544.059 2203.46 516.652 2197.47 494.549 2209.28C472.445 2221.09 445.038 2215.1 429.877 2195.15L405.779 2163.43C390.618 2143.47 363.211 2137.48 341.108 2149.29C319.005 2161.1 291.597 2155.11 276.437 2135.16L252.338 2103.44C237.177 2083.48 209.77 2077.49 187.667 2089.3C165.564 2101.11 138.156 2095.12 122.996 2075.17L90.3514 2032.2C80.1151 2018.72 61.6092 2014.68 46.6851 2022.65Z" fill="url(#paint0_linear_28_37)"/>
</g>
<defs>
<linearGradient id="paint0_linear_28_37" x1="921.216" y1="535.178" x2="896.313" y2="1369.98" gradientUnits="userSpaceOnUse">
<stop stop-color="#FFF5E6"/>
<stop offset="1" stop-color="#FFF2DF"/>
</linearGradient>
<clipPath id="clip0_28_37">
<rect width="1842" height="80" fill="white"/>
</clipPath>
</defs>
</svg>
