<svg width="1920" height="80" viewBox="0 0 1920 80" fill="none" xmlns="http://www.w3.org/2000/svg">
<g clip-path="url(#clip0_16_2)">
<path fill-rule="evenodd" clip-rule="evenodd" d="M60.9632 2914.49C33.0687 2928.7 0 2908.44 0 2877.13V74.6057C0 48.6608 14.554 24.909 37.6703 13.1286L48.6703 7.52279C68.3526 -2.50757 91.6475 -2.50757 111.33 7.52281L128.67 16.3598C148.352 26.3902 171.647 26.3902 191.33 16.3598L208.67 7.52278C228.352 -2.50758 251.647 -2.50759 271.33 7.52275L288.67 16.3599C308.353 26.3902 331.648 26.3902 351.33 16.3598L368.67 7.5228C388.353 -2.50758 411.647 -2.50758 431.33 7.52279L448.67 16.3599C468.353 26.3902 491.647 26.3902 511.33 16.3599L528.67 7.52284C548.353 -2.50755 571.648 -2.50753 591.33 7.52291L608.67 16.3599C628.352 26.3904 651.648 26.3904 671.33 16.3599L688.67 7.52294C708.353 -2.50753 731.648 -2.50751 751.33 7.52294L768.67 16.3599C788.353 26.3904 811.648 26.3904 831.33 16.3599L848.67 7.52298C868.352 -2.50749 891.648 -2.50751 911.33 7.52296L928.67 16.3599C948.352 26.3904 971.648 26.3904 991.33 16.3599L1008.67 7.52293C1028.35 -2.50753 1051.65 -2.50752 1071.33 7.52293L1088.67 16.3599C1108.35 26.3904 1131.65 26.3904 1151.33 16.3599L1168.67 7.52299C1188.35 -2.50749 1211.65 -2.5075 1231.33 7.52297L1248.67 16.3599C1268.35 26.3904 1291.65 26.3904 1311.33 16.3599L1328.67 7.52294C1348.35 -2.50751 1371.65 -2.5075 1391.33 7.52297L1408.67 16.3599C1428.35 26.3904 1451.65 26.3904 1471.33 16.3601L1488.67 7.523C1508.35 -2.50735 1531.65 -2.50733 1551.33 7.52305L1568.67 16.3601C1588.35 26.3904 1611.65 26.3904 1631.33 16.3601L1648.67 7.52302C1668.35 -2.50734 1691.65 -2.50735 1711.33 7.523L1728.67 16.3601C1748.35 26.3905 1771.65 26.3904 1791.33 16.3601L1808.67 7.52305C1828.35 -2.50733 1851.65 -2.50733 1871.33 7.52304L1882.33 13.1288C1905.45 24.9092 1920 48.6611 1920 74.6061V2877.13C1920 2908.44 1886.93 2928.7 1859.04 2914.49C1847.08 2908.39 1832.92 2908.39 1820.96 2914.49L1791.33 2929.59C1771.65 2939.62 1748.35 2939.62 1728.67 2929.59L1711.33 2920.75C1691.65 2910.72 1668.35 2910.72 1648.67 2920.75L1631.33 2929.59C1611.65 2939.62 1588.35 2939.62 1568.67 2929.59L1551.33 2920.75C1531.65 2910.72 1508.35 2910.72 1488.67 2920.75L1471.33 2929.59C1451.65 2939.62 1428.35 2939.62 1408.67 2929.59L1391.33 2920.75C1371.65 2910.72 1348.35 2910.72 1328.67 2920.75L1311.33 2929.59C1291.65 2939.62 1268.35 2939.62 1248.67 2929.59L1231.33 2920.75C1211.65 2910.72 1188.35 2910.72 1168.67 2920.75L1151.33 2929.59C1131.65 2939.62 1108.35 2939.62 1088.67 2929.59L1071.33 2920.75C1051.65 2910.72 1028.35 2910.72 1008.67 2920.75L991.33 2929.59C971.648 2939.62 948.352 2939.62 928.67 2929.59L911.33 2920.75C891.648 2910.72 868.352 2910.72 848.67 2920.75L831.33 2929.59C811.648 2939.62 788.353 2939.62 768.67 2929.59L751.33 2920.75C731.648 2910.72 708.352 2910.72 688.67 2920.75L671.33 2929.59C651.648 2939.62 628.352 2939.62 608.67 2929.59L591.33 2920.75C571.648 2910.72 548.353 2910.72 528.67 2920.75L511.33 2929.59C491.647 2939.62 468.353 2939.62 448.67 2929.59L431.33 2920.75C411.647 2910.72 388.352 2910.72 368.67 2920.75L351.33 2929.59C331.648 2939.62 308.353 2939.62 288.67 2929.59L271.33 2920.75C251.647 2910.72 228.352 2910.72 208.67 2920.75L191.33 2929.59C171.647 2939.62 148.352 2939.62 128.67 2929.59L99.0369 2914.49C87.0774 2908.39 72.9227 2908.39 60.9632 2914.49Z" fill="#FFEBCC"/>
</g>
<defs>
<clipPath id="clip0_16_2">
<rect width="1920" height="80" fill="white"/>
</clipPath>
</defs>
</svg>
