<svg width="213" height="221" viewBox="0 0 213 221" fill="none" xmlns="http://www.w3.org/2000/svg">
<path d="M212.198 209.092C211.006 209.403 209.813 209.675 208.597 209.862C208.27 209.911 206.289 210.095 207.155 210.066C206.812 210.084 206.375 210.11 206.235 210.103C205.525 210.131 204.815 210.159 204.09 210.155C203.677 210.15 201.477 210.017 202.819 210.156C204.161 210.295 201.977 210.076 201.54 210.024C200.923 209.966 200.299 209.892 199.683 209.795C199.113 209.713 198.552 209.608 197.982 209.526C197.685 209.442 197.35 209.398 197.085 209.337C195.75 209.019 194.408 208.646 193.096 208.219C192.402 208.006 191.614 207.84 190.973 207.502C192.465 208.286 190.973 207.502 190.302 207.218C187.702 206.138 185.21 204.886 182.75 203.502C182.492 203.341 181.773 202.925 181.547 202.787C180.992 202.425 180.437 202.063 179.883 201.701C178.609 200.845 177.366 199.936 176.147 198.995C175.022 198.123 173.912 197.204 172.833 196.27C172.512 195.984 172.184 195.683 171.84 195.39C171.84 195.39 171.652 195.212 171.504 195.073C171.363 194.95 171.191 194.764 171.183 194.749C170.87 194.439 170.557 194.13 170.26 193.813C160.711 184.098 154.678 171.552 149.909 158.951C144.645 145.063 140.9 130.659 136.072 116.628C132.282 105.654 127.588 94.593 119.212 86.2699C110.156 77.259 97.1789 71.8277 84.3209 75.3324C77.5255 77.1726 72.1322 81.1661 66.7477 85.5251C64.4757 87.3752 62.1568 89.2101 59.6421 90.7351C59.5175 90.7981 58.7856 91.2073 58.5908 91.2863C57.8977 91.6174 57.1652 91.8321 56.4642 92.1477C56.2538 92.1957 56.0278 92.2516 55.8173 92.2996C55.7862 92.3154 55.5835 92.34 55.3731 92.388C55.2015 92.3969 55.0455 92.3979 54.8896 92.3989C54.874 92.4068 54.8271 92.3916 54.8115 92.3994C54.3277 92.2936 54.156 92.2636 54.1249 92.2794C53.8751 92.211 53.6646 92.1812 53.5397 92.1664C52.9698 91.929 52.4229 91.5825 51.8919 91.3448C51.7591 91.2756 51.681 91.2372 51.6108 91.2143C51.5483 91.1681 51.517 91.145 51.4232 91.0756C50.8216 90.6594 50.1964 90.2356 49.6181 89.7882C49.1256 89.3947 48.6332 89.0012 48.1719 88.5919C47.82 88.2442 47.4758 87.8731 47.1316 87.5019C42.6569 82.5606 40.4009 76.2439 38.7765 69.861C36.9077 62.5696 35.7404 55.1181 33.9885 47.7871C32.2051 40.3551 30.1021 32.9875 27.6876 25.7385C25.4696 19.0715 22.9947 12.5151 20.2548 6.05372C13.4336 4.24632 6.68971 2.20513 2.70294e-06 0.000223216C2.71517 5.9873 5.20451 12.0691 7.48346 18.2379C12.9138 32.9965 16.684 48.108 19.8311 63.4957C21.4362 71.3099 23.485 78.8801 27.6299 85.7603C31.0774 91.4938 36.4171 96.1729 42.4147 99.0978C49.7166 102.668 58.3525 103.655 66.1916 101.364C72.8853 99.4003 78.1372 95.0499 83.4829 90.769C84.6424 89.8515 85.7862 88.942 86.9926 88.0787C87.623 87.6235 88.2769 87.176 88.9464 86.7595C89.2267 86.5788 89.5148 86.4136 89.795 86.2329C89.9041 86.1778 89.9897 86.115 90.0675 86.0756C90.0987 86.0599 90.1765 86.0205 90.3167 85.9496C91.002 85.603 91.7187 85.3183 92.4354 85.0337C92.6067 84.9471 92.7236 84.9075 92.8015 84.8681C92.8482 84.8445 92.8951 84.8597 92.9808 84.8358C93.3861 84.7477 93.8226 84.6827 94.2513 84.6021C94.5476 84.608 94.992 84.5585 95.1947 84.5339C95.2571 84.5412 95.3196 84.5486 95.3664 84.5639C95.8035 84.6933 96.2872 84.7602 96.6775 84.8743C96.7165 84.8741 96.7243 84.8896 96.7477 84.8972C96.7556 84.9127 96.7556 84.9127 96.7946 84.9125C97.3412 85.1812 97.8957 85.4265 98.4423 85.6952C98.497 85.726 98.5985 85.772 98.7156 85.8102C98.7468 85.8333 98.7781 85.8565 98.8093 85.8796C99.8564 86.5962 100.888 87.3207 101.857 88.1156C102.029 88.2623 102.608 88.7486 102.858 88.9725C103.092 89.2044 103.757 89.8612 103.874 89.9771C104.813 90.9433 105.697 91.9565 106.535 92.9934C108.264 95.1368 109.838 97.3978 111.24 99.7455C111.311 99.8851 111.703 100.544 111.781 100.66C112.079 101.21 112.377 101.76 112.659 102.319C113.318 103.621 113.961 104.931 114.534 106.258C115.814 109.174 116.906 112.185 117.96 115.196C123.093 129.715 126.917 144.663 132.331 159.08C137.36 172.425 143.84 186.088 153.844 196.47C163.159 206.148 174.823 213.47 187.71 217.408C195.32 219.732 203.598 220.822 211.66 220.171C211.674 219.736 211.673 219.308 211.687 218.872C211.707 217.558 211.961 216.397 212.372 215.391C212.553 213.197 212.78 211.018 213 208.823C212.681 208.926 212.276 209.053 212.12 209.093L212.198 209.092Z" fill="#BE7AB4"/>
</svg>
